<?xml version="1.0" encoding="utf-8"?><svg xmlns="http://www.w3.org/2000/svg" width="102" height="105" viewBox="0 0 102 105">
    <g fill="#F58025" fill-rule="nonzero" stroke="#FFF">
        <path stroke-width="1.4" d="M51.077 1c15.46 0 28.574 10.253 32.897 24.316 7.843-.726 13.605-.632 16.334 4.828.985 1.97 1.047 4.13.187 6.417-1.79 4.764-7.576 9.676-14.762 14.205 9.154 5.886 16.546 12.314 14.738 19.57-.98 3.926-3.849 5.928-8.528 5.951l-.009-.001a2.15 2.15 0 0 1-.01-4.301c3.423-.017 4.038-1.34 4.373-2.692 1.023-4.1-3.52-9.08-14.693-16.048-.86.493-1.731.98-2.611 1.46a43.361 43.361 0 0 1-4.892 5.876c-3.027 3.027-5.023 5.494-6.26 7.938 3.356.97 6.53 1.766 9.473 2.37a2.145 2.145 0 0 1 1.675 2.536 2.151 2.151 0 0 1-2.537 1.678c-3.11-.637-6.462-1.48-10.004-2.51a16.52 16.52 0 0 0-.22 1.524l-.098-.003c1.189 0 2.15.961 2.15 2.15 0 1.19-.961 2.15-2.15 2.15v4.301c1.189 0 2.15.962 2.15 2.15 0 1.19-.961 2.151-2.15 2.151v4.3a4.272 4.272 0 0 1-1.26 3.041 4.272 4.272 0 0 1-3.041 1.26h-2.15v4.301a4.272 4.272 0 0 1-1.261 3.041 4.271 4.271 0 0 1-3.04 1.26h-8.602a4.26 4.26 0 0 1-3.043-1.262 4.275 4.275 0 0 1-1.258-3.039v-4.301h-2.15a4.265 4.265 0 0 1-3.043-1.261 4.278 4.278 0 0 1-1.258-3.04v-4.3a2.15 2.15 0 1 1 0-4.3v-4.301a2.15 2.15 0 0 1-.1-4.3 16.672 16.672 0 0 0-.218-1.53c-7.49 2.186-15.51 3.95-21.91 3.95-3.248 0-6.078-.453-8.211-1.535-2.052-1.039-3.402-2.652-3.903-4.667-.735-2.894.017-5.913 2.24-8.97a2.157 2.157 0 0 1 3.005-.472 2.15 2.15 0 0 1 .473 3.004c-1.937 2.66-1.811 4.348-1.546 5.385.129.511.439 1.253 1.677 1.881 4.143 2.103 14.05 1.016 26.777-2.65-1.238-2.441-3.233-4.906-6.256-7.93a43.4 43.4 0 0 1-4.892-5.878C13.044 49.181 3.98 42.745 1.656 36.559c-.86-2.288-.798-4.447.187-6.417 2.732-5.459 8.494-5.554 16.338-4.826C22.502 11.253 35.615 1 51.077 1zm4.3 94.617h-8.602v4.301h8.603v-4.301zm-4.303-28.23l-.358.135a220.467 220.467 0 0 1-10.88 3.799c.337 1.557.489 3.184.489 4.943v15.052h21.501v-4.3H44.625a2.15 2.15 0 1 1 0-4.3l17.202-.001.001-4.301H44.625a2.15 2.15 0 1 1 0-4.3l17.286-.001c.078-.958.21-1.881.403-2.78a211.355 211.355 0 0 1-11.24-3.946zm17.82-7.58l-.128.06a269.372 269.372 0 0 1-11.703 5.147c2.263.81 4.474 1.558 6.623 2.241 1.126-2.423 2.817-4.813 5.209-7.448zm-35.639-.004l.27.3c2.25 2.518 3.857 4.819 4.942 7.15 2.148-.681 4.363-1.427 6.631-2.237a269.77 269.77 0 0 1-11.843-5.213zM51.077 5.301C34.475 5.3 20.97 18.806 20.97 35.406c0 6.403 2.469 11.901 5.117 15.957 6.105 3.297 13.361 6.694 21.502 10.024 1.175.478 2.34.942 3.496 1.393 1.15-.45 2.311-.913 3.48-1.39 8.14-3.329 15.393-6.725 21.495-10.02 2.65-4.057 5.121-9.557 5.121-15.964 0-16.6-13.505-30.105-30.105-30.105zm33.96 24.241l-.053.005c.328 1.905.5 3.862.5 5.86 0 4.41-1 8.425-2.442 11.923 7.406-4.621 12.153-8.886 13.43-12.283.434-1.154.432-2.103-.009-2.98-1.265-2.531-3.917-3.159-11.426-2.525zM5.692 32.064c-.44.88-.443 1.826-.008 2.981 1.276 3.396 6.022 7.66 13.425 12.28-1.44-3.496-2.439-7.51-2.439-11.919 0-1.998.172-3.956.5-5.862-7.556-.64-10.21-.012-11.478 2.52z"/>
        <path stroke-width="1.4" d="M81.182 80.565a6.458 6.458 0 0 1-6.45-6.451 6.458 6.458 0 0 1 6.45-6.451 6.458 6.458 0 0 1 6.451 6.45 6.458 6.458 0 0 1-6.45 6.452zm0-8.601c-1.187 0-2.15.963-2.15 2.15a2.151 2.151 0 0 0 4.3 0 2.15 2.15 0 0 0-2.15-2.15zM8.069 65.512a6.458 6.458 0 0 1-6.451-6.451 6.458 6.458 0 0 1 6.45-6.451 6.458 6.458 0 0 1 6.452 6.45 6.458 6.458 0 0 1-6.451 6.452zm0-8.602c-1.185 0-2.15.964-2.15 2.15 0 1.188.965 2.15 2.15 2.15 1.184 0 2.15-.962 2.15-2.15 0-1.186-.966-2.15-2.15-2.15z"/>
        <path d="M51.077 44.008c-4.744 0-8.602-3.858-8.602-8.602 0-4.743 3.858-8.601 8.602-8.601s8.602 3.858 8.602 8.601c0 4.744-3.858 8.602-8.602 8.602zm0-12.903c-2.373 0-4.301 1.93-4.301 4.301 0 2.372 1.928 4.301 4.3 4.301s4.302-1.93 4.302-4.3c0-2.372-1.93-4.302-4.301-4.302z"/>
        <path stroke-width="1.4" d="M48.924 59.063a2.15 2.15 0 0 1-2.086-1.63l-1.45-5.804a17.243 17.243 0 0 1-1.767-.729l-5.129 3.075a2.15 2.15 0 0 1-2.625-.322l-3.04-3.041a2.148 2.148 0 0 1-.324-2.628l3.08-5.124a17.433 17.433 0 0 1-.729-1.766l-5.804-1.452a2.153 2.153 0 0 1-1.628-2.087v-4.301c0-.987.673-1.847 1.628-2.086l5.804-1.45c.211-.603.454-1.193.729-1.765l-3.075-5.129a2.15 2.15 0 0 1 .323-2.625l3.04-3.04a2.15 2.15 0 0 1 2.628-.324l5.126 3.078a17.415 17.415 0 0 1 1.761-.73l1.452-5.803a2.153 2.153 0 0 1 2.088-1.628h4.3c.988 0 1.846.673 2.087 1.628l1.451 5.804c.605.21 1.196.453 1.768.73l5.128-3.076a2.154 2.154 0 0 1 2.629.322l3.04 3.041c.7.699.832 1.783.323 2.628l-3.082 5.126c.276.572.518 1.161.73 1.763l5.803 1.452c.957.24 1.628 1.101 1.628 2.088v4.3c0 .988-.673 1.848-1.63 2.087l-5.802 1.45a17.279 17.279 0 0 1-.73 1.767l3.079 5.126c.507.848.374 1.93-.323 2.628l-3.04 3.04a2.15 2.15 0 0 1-2.629.323L58.528 50.9c-.576.275-1.166.52-1.766.729l-1.453 5.804a2.15 2.15 0 0 1-2.084 1.628l-4.3.002zm-5.372-12.78c.372 0 .744.097 1.078.29.963.557 2.008.987 3.105 1.282a2.147 2.147 0 0 1 1.531 1.557l1.337 5.35.94-.002 1.34-5.35a2.146 2.146 0 0 1 1.535-1.557 12.757 12.757 0 0 0 3.106-1.284 2.16 2.16 0 0 1 2.18.02l4.724 2.838.665-.664-2.836-4.727a2.154 2.154 0 0 1-.016-2.19c.556-.95.985-1.994 1.284-3.102a2.148 2.148 0 0 1 1.557-1.529l5.348-1.335v-.942l-5.35-1.34a2.153 2.153 0 0 1-1.555-1.529 12.887 12.887 0 0 0-1.284-3.105 2.145 2.145 0 0 1 .017-2.185l2.84-4.724-.667-.667-4.727 2.834a2.148 2.148 0 0 1-2.184.017 12.822 12.822 0 0 0-3.104-1.28 2.15 2.15 0 0 1-1.531-1.558l-1.337-5.348h-.942l-1.34 5.35a2.15 2.15 0 0 1-1.531 1.555 12.832 12.832 0 0 0-3.103 1.284 2.155 2.155 0 0 1-2.182-.02l-4.725-2.836-.667.666 2.835 4.727c.402.671.408 1.507.017 2.183a12.887 12.887 0 0 0-1.282 3.102 2.152 2.152 0 0 1-1.555 1.532l-5.35 1.337v.943l5.35 1.34a2.151 2.151 0 0 1 1.557 1.53c.29 1.088.723 2.133 1.284 3.11a2.152 2.152 0 0 1-.02 2.18l-2.838 4.723.667.666 4.727-2.834c.337-.207.72-.308 1.102-.308zm29.028-8.724h.022-.022z"/>
    </g>
</svg>
