<svg xmlns="http://www.w3.org/2000/svg" width="117" height="102" viewBox="0 0 117 102"><g fill="#E9731F" fill-rule="nonzero" stroke="#FFF"><path d="M116.158 57.077c-1.06-22.972-20.543-40.735-43.515-39.675-21.488.992-38.683 18.187-39.675 39.675h-5.896l-5.568-8.98a1.92 1.92 0 0 0-1.632-.908H2.932A1.92 1.92 0 0 0 1.3 50.12l5.543 8.935L1.3 67.994a1.92 1.92 0 0 0 1.632 2.932h16.94a1.92 1.92 0 0 0 1.632-.908l5.643-9.101h5.821c1.06 22.972 20.543 40.735 43.515 39.674 22.972-1.06 40.735-20.542 39.675-43.514zM18.802 67.086H6.376l3.752-6.048h12.42l-3.746 6.048zm-8.669-10.01L6.376 51.03h12.426l3.752 6.048h-12.42zM74.66 96.8c-20.15.026-36.779-15.759-37.801-35.883H44.7c1.06 16.508 15.303 29.03 31.81 27.97 16.508-1.06 29.031-15.302 27.97-31.81-1.06-16.508-15.302-29.031-31.81-27.97-15.03.965-27.005 12.94-27.97 27.97h-7.843c1.028-20.083 17.594-35.847 37.703-35.88 20.877-.026 37.823 16.876 37.85 37.752.027 20.877-16.875 37.823-37.752 37.85zm-.1-39.723h-1.966a2.755 2.755 0 1 1 0 3.84h1.966a1.92 1.92 0 0 0 0-3.84zm1.96 8.227a6.593 6.593 0 1 0-8.227-8.227h-8.025c1.06-7.901 8.325-13.447 16.226-12.386 7.901 1.06 13.447 8.325 12.386 16.226-1.06 7.901-8.325 13.447-16.226 12.386a14.435 14.435 0 0 1-12.386-12.386h8.025a6.593 6.593 0 0 0 8.228 4.387zm-.037 11.866c10.036-1.06 17.314-10.056 16.253-20.093-1.06-10.037-10.056-17.314-20.093-16.254a18.275 18.275 0 0 0-16.254 16.254h-7.847c1.06-14.383 13.58-25.182 27.961-24.121 14.382 1.06 25.182 13.579 24.122 27.96-1.061 14.383-13.58 25.182-27.962 24.122-12.907-.951-23.17-11.214-24.12-24.121h7.846c1.06 10.037 10.057 17.314 20.094 16.253zM20.2 1.001h15.36v3.84H20.2zm15.36 13.44h15.36v3.84H35.56zM12.52 1.001h3.84v3.84h-3.84z"/><path d="M8.68 37.481h15.36v3.84H8.68zm-7.68 0h3.84v3.84H1zm15.36 42.24h11.52v3.84H16.36zm-7.68 0h3.84v3.84H8.68z"/></g></svg>