<svg xmlns="http://www.w3.org/2000/svg" width="95" height="100" viewBox="0 0 95 100"><g fill="#F58025" fill-rule="nonzero"><path d="M49.6 48a6.348 6.348 0 0 0-3.438 1.02l-21.09-21.09a1.6 1.6 0 0 0-2.263 2.262L44 51.377a6.322 6.322 0 0 0-.8 3.023 6.4 6.4 0 1 0 6.4-6.4zm0 9.6a3.2 3.2 0 1 1 0-6.4 3.2 3.2 0 0 1 0 6.4z"/><path d="M94.386 53.245a44.448 44.448 0 0 0-11.232-28.518l7.04-6.74a1.6 1.6 0 1 0-2.214-2.307l-7.04 6.734c-.16-.16-.319-.334-.497-.495a44.57 44.57 0 0 0-29.25-12.28c0-.013.007-.025.007-.039V3.2H56A1.6 1.6 0 0 0 56 0H43.2a1.6 1.6 0 0 0 0 3.2H48v6.438C28.193 10.373 11.214 24.016 6.232 43.2H1.6a1.6 1.6 0 0 0 0 3.2h3.919a44.554 44.554 0 0 0-.682 6.4H3.2a1.6 1.6 0 0 0 0 3.2h1.637c.074 2.147.3 4.285.678 6.4H3.2a1.6 1.6 0 0 0 0 3.2h3.02c5.107 19.767 22.932 33.583 43.348 33.6.397 0 .792-.005 1.187-.016 24.722-.665 44.24-21.216 43.63-45.94zm-43.713 42.74C31.618 96.47 14.667 83.954 9.52 65.6H22.4a1.6 1.6 0 0 0 0-3.2H8.777A42.249 42.249 0 0 1 8.04 56H30.4a1.6 1.6 0 0 0 0-3.2H8.04c.082-2.15.331-4.29.744-6.4H17.6a1.6 1.6 0 0 0 0-3.2H9.536c4.937-17.577 20.74-29.892 38.99-30.386.37-.014.735-.014 1.103-.014 22.752.027 41.262 18.327 41.548 41.077.285 22.751-17.759 41.51-40.504 42.109z"/></g></svg>