<?xml version="1.0" encoding="utf-8"?><svg xmlns="http://www.w3.org/2000/svg" width="84" height="84" viewBox="0 0 84 84">
    <path fill="#E9731F" fill-rule="nonzero" stroke="#FFF" stroke-width="2" d="M72.883 56.276C66.411 49.804 57.805 46.24 48.652 46.24H44.36V27.117h31.916L67.851 16.17l8.24-11.423H44.36V1.013h-4.8v45.226h-4.292c-9.153 0-17.759 3.565-24.231 10.037C4.564 62.748 1 71.354 1 80.507v2.4h81.92v-2.4c0-9.153-3.564-17.759-10.037-24.23zM66.71 9.547l-4.844 6.716 4.66 6.054H44.36V9.547h22.35zM5.897 78.107c1.226-15.13 13.93-27.068 29.371-27.068h4.292v4.347h-3.962v4.8h12.724v-4.8H44.36V51.04h4.292c15.44 0 28.145 11.938 29.371 27.068H5.897z"/>
</svg>
