<svg width="79" height="57" viewBox="0 0 79 57" version="1.1" xmlns="http://www.w3.org/2000/svg"><g id="Mockups" stroke="none" stroke-width="1" fill="none" fill-rule="evenodd"><g id="About" transform="translate(-681 -1755)" fill="#E9731F" fill-rule="nonzero" stroke="#123759"><g id="award" transform="translate(682 1756)"><path d="M49.56 28.934a1.238 1.238 0 0 0-1-.844l-6.252-.909-2.796-5.665a1.24 1.24 0 0 0-2.224 0l-2.796 5.665-6.252.909a1.24 1.24 0 0 0-.687 2.115l4.524 4.41-1.068 6.227a1.24 1.24 0 0 0 1.799 1.307l5.592-2.94 5.592 2.94a1.239 1.239 0 0 0 1.8-1.307l-1.069-6.227 4.524-4.41c.338-.33.46-.823.314-1.271zm-7.035 4.36a1.24 1.24 0 0 0-.356 1.098l.754 4.393-3.946-2.074a1.24 1.24 0 0 0-1.154 0l-3.945 2.074.754-4.393a1.24 1.24 0 0 0-.357-1.098l-3.192-3.111 4.411-.641a1.24 1.24 0 0 0 .934-.678l1.973-3.997 1.973 3.997c.18.366.53.62.933.678l4.411.641-3.193 3.111z" id="Shape"/><path d="M17.568 21.748c5.056 0 9.803-3.15 11.584-8.18a1.24 1.24 0 0 0-.755-1.583 12.194 12.194 0 0 0-9.337.472 27.944 27.944 0 0 1 2.462-2.817 1.24 1.24 0 1 0-1.754-1.753c-.639.639-1.241 1.3-1.811 1.98C17.82 6.185 16.042 2.6 12.814.304a1.24 1.24 0 0 0-1.73.291 12.196 12.196 0 0 0-2.103 9.158 12.186 12.186 0 0 0 4.407 7.52 30.167 30.167 0 0 0-1.07 2.879 12.47 12.47 0 0 0-.853-1.587A12.197 12.197 0 0 0 3.78 13.16a1.24 1.24 0 0 0-1.481.939C.87 20.474 4.708 26.822 10.916 28.586c-.031 1.314.024 2.63.163 3.939a12.53 12.53 0 0 0-.902-.731 12.197 12.197 0 0 0-9.124-2.245 1.24 1.24 0 0 0-1.039 1.413 12.195 12.195 0 0 0 4.865 8.039 12.185 12.185 0 0 0 8.496 2.322 30.055 30.055 0 0 0 1.755 3.45c-3.836-1.23-8.2-.558-11.543 2.179a1.24 1.24 0 0 0-.174 1.745 12.196 12.196 0 0 0 8.282 4.438c.415.041.828.061 1.239.061a12.16 12.16 0 0 0 7.05-2.245 30.518 30.518 0 0 0 4.537 3.67 1.24 1.24 0 0 0 1.367-2.07 28.04 28.04 0 0 1-4.366-3.565A27.653 27.653 0 0 1 15.03 38.76c5.888-2.27 9.164-8.73 7.362-14.894a1.24 1.24 0 0 0-1.539-.843 12.196 12.196 0 0 0-7.322 5.888c-.05.091-.096.184-.143.277a27.98 27.98 0 0 1 1.15-7.824c1.008.259 2.025.384 3.03.384zm-6.707 4.214a9.819 9.819 0 0 1-6.345-10.006c2 .74 3.694 2.105 4.855 3.936a9.722 9.722 0 0 1 1.49 6.07zm-4.513 11.04a9.723 9.723 0 0 1-3.593-5.113l.157-.001a9.82 9.82 0 0 1 9.39 7.018 9.734 9.734 0 0 1-5.954-1.903zm5.593 13.665a9.723 9.723 0 0 1-5.698-2.57 9.819 9.819 0 0 1 11.79 1.175 9.727 9.727 0 0 1-6.092 1.395zm3.765-20.565a9.725 9.725 0 0 1 4.592-4.24 9.819 9.819 0 0 1-5.69 10.392 9.725 9.725 0 0 1 1.098-6.152zm4.375-15.386a9.723 9.723 0 0 1 6.205-.753 9.818 9.818 0 0 1-10.694 5.101 9.725 9.725 0 0 1 4.49-4.348zM11.426 9.34a9.721 9.721 0 0 1 .98-6.173 9.819 9.819 0 0 1 1.969 11.683 9.722 9.722 0 0 1-2.949-5.51zm53.25 32.048c2.595 0 5.115-.821 7.245-2.387a12.195 12.195 0 0 0 4.865-8.039 1.24 1.24 0 0 0-1.039-1.413 12.254 12.254 0 0 0-10.026 2.984c.138-1.312.194-2.63.163-3.948a12.185 12.185 0 0 0 7.005-5.23 12.196 12.196 0 0 0 1.612-9.257 1.24 1.24 0 0 0-1.48-.94 12.2 12.2 0 0 0-7.686 5.406 12.473 12.473 0 0 0-.852 1.587 30.144 30.144 0 0 0-1.07-2.879C68.431 13.235 69.497 5.91 65.715.594a1.238 1.238 0 0 0-1.73-.291 12.197 12.197 0 0 0-4.988 7.963c-.09.532-.14 1.064-.16 1.595a30.466 30.466 0 0 0-1.806-1.974 1.24 1.24 0 0 0-1.754 1.753 27.94 27.94 0 0 1 2.462 2.817 12.193 12.193 0 0 0-9.337-.472 1.24 1.24 0 0 0-.755 1.583c1.781 5.031 6.528 8.18 11.584 8.18 1.005 0 2.022-.125 3.03-.384a27.986 27.986 0 0 1 1.15 7.836 12.24 12.24 0 0 0-7.465-6.177 1.24 1.24 0 0 0-1.538.843 12.195 12.195 0 0 0 1.014 9.34 12.183 12.183 0 0 0 6.347 5.555 27.658 27.658 0 0 1-6.492 10.225 28.033 28.033 0 0 1-4.365 3.566 1.24 1.24 0 0 0 1.366 2.07 30.509 30.509 0 0 0 4.537-3.672 12.22 12.22 0 0 0 7.062 2.24 12.26 12.26 0 0 0 9.51-4.493 1.24 1.24 0 0 0-.175-1.745 12.199 12.199 0 0 0-8.994-2.718 12.4 12.4 0 0 0-2.542.528 30.044 30.044 0 0 0 1.749-3.44c.417.043.834.066 1.25.066zm7.61-25.431a9.724 9.724 0 0 1-1.491 6.07 9.723 9.723 0 0 1-4.855 3.936 9.818 9.818 0 0 1 6.345-10.006zm1.758 15.932c-1.24 4.201-5.166 7.083-9.545 7.016a9.816 9.816 0 0 1 9.546-7.016zm-23.53-17.926a9.721 9.721 0 0 1 6.204.753 9.723 9.723 0 0 1 4.49 4.348 9.818 9.818 0 0 1-10.694-5.1zm11.91.887a9.72 9.72 0 0 1-.98-6.172 9.723 9.723 0 0 1 2.949-5.511 9.82 9.82 0 0 1-1.969 11.683zm2.04 31.851a9.721 9.721 0 0 1 6.093 1.396 9.82 9.82 0 0 1-11.79 1.174 9.723 9.723 0 0 1 5.697-2.57zm-2.273-10.446a9.723 9.723 0 0 1-4.592-4.24 9.724 9.724 0 0 1-1.098-6.152 9.82 9.82 0 0 1 5.69 10.392z" id="Shape"/></g></g></g></svg>