<svg width="46" height="55" viewBox="0 0 46 55" version="1.1" xmlns="http://www.w3.org/2000/svg"><g id="Mockups" stroke="none" stroke-width="1" fill="none" fill-rule="evenodd"><g id="About" transform="translate(-697 -2827)" fill="#E9731F" fill-rule="nonzero"><g id="best-seller" transform="translate(697 2827)"><path d="M18.787 8.78c-7.74 2.223-12.21 10.3-9.988 18.038a.911.911 0 0 0 1.752-.504 12.756 12.756 0 0 1-.01-7.008c1.925-6.777 8.98-10.71 15.757-8.785 6.777 1.926 10.71 8.98 8.785 15.758a.911.911 0 0 0 1.753.498c.744-2.618.74-5.393-.012-8.01-2.223-7.738-10.299-12.21-18.037-9.987zm13.046 21.731a.912.912 0 1 0-1.29 1.29l1.289 1.287c.17.17.402.267.644.267v.001a.91.91 0 0 0 .644-1.555l-1.287-1.29zm3.27-1.686l-1.577-.912a.911.911 0 0 0-.912 1.579l1.578.91a.911.911 0 0 0 .911-1.578zM15.08 30.511a.912.912 0 0 0-1.29 0L12.504 31.8a.911.911 0 0 0 1.288 1.288l1.29-1.287a.912.912 0 0 0 0-1.29zm-2.06-1.026a.911.911 0 0 0-.922-1.572l-1.578.912a.911.911 0 0 0 .456 1.7c.16 0 .317-.042.456-.122l1.577-.911a.896.896 0 0 0 .01-.007z" id="Path"/><path d="M45.357 22.17l-3.95-4.375 1.237-5.761a.911.911 0 0 0-.611-1.059l-5.61-1.806-1.806-5.61a.911.911 0 0 0-1.059-.612l-5.762 1.237-4.374-3.95a.911.911 0 0 0-1.22 0l-4.374 3.95-5.762-1.237a.911.911 0 0 0-1.059.612l-1.806 5.61-5.61 1.805a.911.911 0 0 0-.611 1.059l1.236 5.762-3.95 4.374a.911.911 0 0 0 0 1.221l3.95 4.374-1.236 5.761a.911.911 0 0 0 .61 1.06l4.244 1.366a.91.91 0 0 0-.254.279L.71 48.13a.911.911 0 0 0 1.026 1.335l6.581-1.768 1.769 6.591a.911.911 0 0 0 1.67.22l6.842-11.855a.897.897 0 0 0 .106-.487l3.497 3.159a.911.911 0 0 0 1.221 0l3.497-3.159a.897.897 0 0 0 .106.487l6.843 11.855a.911.911 0 0 0 1.67-.22l1.768-6.59 6.582 1.767a.911.911 0 0 0 1.026-1.336l-6.87-11.9a.911.911 0 0 0-.254-.279l4.243-1.367a.911.911 0 0 0 .611-1.058l-1.236-5.761 3.949-4.374a.911.911 0 0 0 0-1.22zM17.02 41.741l-5.742 9.95-1.435-5.348a.911.911 0 0 0-1.116-.644h-.001L3.39 47.134l5.77-9.994a.897.897 0 0 0 .099-.571L11.006 42a.911.911 0 0 0 1.06.61l5.164-1.107a.877.877 0 0 0-.21.238zm25.215 5.394L36.899 45.7a.911.911 0 0 0-1.117.643v.001l-1.435 5.348-5.74-9.95a.88.88 0 0 0-.21-.238l5.163 1.108A.911.911 0 0 0 34.62 42l1.748-5.434a.896.896 0 0 0 .099.573l5.768 9.996zm-2.492-20.247a.911.911 0 0 0-.214.802l1.16 5.412-5.27 1.695a.911.911 0 0 0-.59.589l-1.695 5.27-5.41-1.16a.902.902 0 0 0-.803.214l-4.11 3.71-4.109-3.71a.911.911 0 0 0-.802-.214l-5.411 1.16-1.696-5.27a.911.911 0 0 0-.589-.59l-5.27-1.695 1.16-5.411a.911.911 0 0 0-.213-.802l-3.71-4.11 3.71-4.109a.911.911 0 0 0 .214-.802l-1.16-5.411 5.27-1.696a.911.911 0 0 0 .589-.589l1.696-5.27 5.41 1.16a.898.898 0 0 0 .802-.213l4.11-3.71 4.11 3.71a.896.896 0 0 0 .801.214l5.412-1.16 1.696 5.27c.09.28.309.499.588.589l5.27 1.696-1.16 5.41a.911.911 0 0 0 .214.802l3.71 4.11-3.71 4.11z" id="Shape"/><path d="M27.23 35.748l-.473-1.76a.911.911 0 0 0-1.76.47l.472 1.762a.911.911 0 0 0 1.76-.472zm2.294-3.165a.911.911 0 1 0-1.579.911l.912 1.578a.911.911 0 0 0 1.578-.912l-.911-1.577zm-9.537.758a.911.911 0 0 0-1.116.644l-.472 1.761a.911.911 0 0 0 .644 1.116.911.911 0 0 0 1.116-.644l.472-1.761a.911.911 0 0 0-.644-1.116zm-2.642-1.091a.911.911 0 0 0-1.245.333l-.911 1.578a.911.911 0 1 0 1.572.921l.006-.01.911-1.578a.911.911 0 0 0-.333-1.244zm5.467 1.464a.911.911 0 0 0-.911.911v1.823a.911.911 0 0 0 1.822 0v-1.823a.911.911 0 0 0-.911-.91z" id="Path"/></g></g></g></svg>