<?xml version="1.0" encoding="UTF-8"?>
<svg width="62px" height="54px" viewBox="0 0 62 54" version="1.1" xmlns="http://www.w3.org/2000/svg" xmlns:xlink="http://www.w3.org/1999/xlink">
    <!-- Generator: Sketch 63.1 (92452) - https://sketch.com -->
    <title>gallery</title>
    <desc>Created with Sketch.</desc>
    <g id="Mockups" stroke="none" stroke-width="1" fill="none" fill-rule="evenodd">
        <g id="Individual-Service" transform="translate(-691.000000, -3180.000000)" fill="#E9731F" fill-rule="nonzero">
            <g id="Group-6" transform="translate(418.000000, 3180.000000)">
                <g id="gallery" transform="translate(273.000000, 0.000000)">
                    <path d="M30.9478372,18.9867378 C27.5051167,18.9867378 24.7140941,21.7776184 24.7140941,25.220481 C24.7140941,28.6632015 27.5049747,31.4542241 30.9478372,31.4542241 C34.3905577,31.4542241 37.1815804,28.6633435 37.1815804,25.220481 C37.1815804,21.7776184 34.3906998,18.9867378 30.9478372,18.9867378 Z M30.9478372,28.4856465 C29.1444466,28.4856465 27.6825297,27.0237296 27.6825297,25.2203389 C27.6825297,23.4169483 29.1444466,21.9550314 30.9478372,21.9550314 L30.9478372,21.9550314 C32.7512279,21.9550314 34.2131448,23.4169483 34.2131448,25.2203389 C34.2131448,27.0237296 32.7512279,28.4856465 30.9478372,28.4856465 Z" id="Shape"></path>
                    <path d="M55.8085207,4.73816182 L15.2894745,0.137214507 C13.7169053,-0.086362754 12.1235977,0.372723465 10.9111101,1.39884935 C9.69876455,2.33889656 8.92164181,3.73234823 8.75900142,5.25775878 L8.01696355,11.3430659 L5.71627683,11.3430659 C2.45096928,11.3430659 0.00198861605,14.2372125 0.00198861605,17.5025201 L0.00198861605,47.8546247 C-0.0802548619,50.9683713 2.37724844,53.559396 5.49113708,53.6416395 C5.56613632,53.643576 5.64127759,53.643576 5.71627683,53.643576 L46.457906,53.643576 C49.7232136,53.643576 52.6916492,51.1199323 52.6916492,47.8546247 L52.6916492,46.6672789 C53.7039968,46.4716843 54.6643563,46.067285 55.5116488,45.4799331 C56.7140513,44.4675855 57.4839298,43.0339353 57.6637575,41.4725877 L61.077501,11.3430659 C61.4255088,8.07023005 59.0768112,5.12608399 55.8085207,4.73816182 Z M49.7233556,47.8546247 C49.7233556,49.4872785 48.0905598,50.6746243 46.457906,50.6746243 L5.71627683,50.6746243 C4.24143394,50.7179478 3.0107647,49.5574482 2.96744127,48.0826054 C2.96516857,48.0066118 2.96625552,47.9306183 2.9704242,47.8546247 L2.9704242,42.3630615 L14.4731476,33.9030627 C15.8549517,32.8421361 17.8012386,32.9364533 19.0742369,34.1256457 L27.1632168,41.2498627 C28.3916133,42.2812442 29.9379044,42.8578008 31.5417232,42.8825164 C32.7956877,42.8978572 34.0290558,42.5639117 35.1039027,41.9177536 L49.7233556,33.4577548 L49.7233556,47.8546247 L49.7233556,47.8546247 Z M49.7232136,29.9698643 L33.5452539,39.3946259 C32.1560635,40.2176289 30.3977008,40.0686247 29.1667475,39.023607 L21.0036206,31.825101 C18.6640139,29.8147522 15.2444465,29.691458 12.7662048,31.528229 L2.9704242,38.652446 L2.9704242,17.5025201 C2.9704242,15.8698663 4.08362305,14.3115015 5.71627683,14.3115015 L46.457906,14.3115015 C48.2022064,14.3838019 49.6108568,15.7604924 49.7232136,17.5025201 L49.7232136,29.9698643 L49.7232136,29.9698643 Z M58.1119063,10.9423598 C58.110912,10.9521608 58.1100597,10.9621039 58.1089234,10.971905 L54.6210329,41.1014267 C54.6269987,41.8826687 54.2707524,42.6225759 53.65627,43.1050994 C53.359398,43.4019714 52.6915071,43.5504073 52.6915071,43.6988433 L52.6915071,17.5025201 C52.5743208,14.1217307 49.8396897,11.4196277 46.457764,11.3430659 L10.9852571,11.3430659 L11.653148,5.55463075 C11.7980329,4.80506455 12.1899323,4.12581012 12.7663468,3.62510501 C13.4171925,3.17510961 14.2041162,2.96531061 14.9927446,3.03136108 L55.4376439,7.7065974 C57.0694454,7.86156741 58.2668763,9.3102742 58.1119063,10.9423598 Z" id="Shape"></path>
                </g>
            </g>
        </g>
    </g>
</svg>