<svg width="62" height="54" viewBox="0 0 62 54" version="1.1" xmlns="http://www.w3.org/2000/svg"><g id="Mockups" stroke="none" stroke-width="1" fill="none" fill-rule="evenodd"><g id="Individual-Service" transform="translate(-691 -3180)" fill="#E9731F" fill-rule="nonzero"><g id="Group-6" transform="translate(418 3180)"><g id="gallery" transform="translate(273)"><path d="M30.948 18.987a6.234 6.234 0 1 0 0 12.467 6.234 6.234 0 0 0 0-12.467zm0 9.499a3.265 3.265 0 1 1 0-6.531 3.265 3.265 0 1 1 0 6.53z" id="Shape"/><path d="M55.809 4.738l-40.52-4.6a5.565 5.565 0 0 0-4.378 1.26 5.64 5.64 0 0 0-2.152 3.86l-.742 6.085h-2.3c-3.266 0-5.715 2.894-5.715 6.16v30.352a5.64 5.64 0 0 0 5.714 5.789h40.742c3.265 0 6.234-2.524 6.234-5.79v-1.187a7.42 7.42 0 0 0 2.82-1.187 6.16 6.16 0 0 0 2.152-4.007l3.414-30.13a6.011 6.011 0 0 0-5.27-6.605zm-6.086 43.117c0 1.632-1.632 2.82-3.265 2.82H5.716a2.672 2.672 0 0 1-2.746-2.82v-5.492l11.503-8.46a3.562 3.562 0 0 1 4.601.223l8.09 7.124a6.976 6.976 0 0 0 4.378 1.633 6.753 6.753 0 0 0 3.562-.965l14.62-8.46v14.397zm0-17.885l-16.178 9.425a3.785 3.785 0 0 1-4.378-.371l-8.163-7.199a6.605 6.605 0 0 0-8.238-.297L2.97 38.652v-21.15c0-1.632 1.114-3.19 2.746-3.19h40.742a3.414 3.414 0 0 1 3.265 3.19V29.97zm8.389-19.028l-.003.03-3.488 30.13a2.523 2.523 0 0 1-.965 2.003c-.297.297-.964.445-.964.594V17.503a6.382 6.382 0 0 0-6.234-6.16H10.985l.668-5.788a3.414 3.414 0 0 1 1.113-1.93 3.415 3.415 0 0 1 2.227-.594l40.445 4.676a2.968 2.968 0 0 1 2.674 3.235z" id="Shape"/></g></g></g></g></svg>