<svg height="54" viewBox="0 0 62 54" width="62" xmlns="http://www.w3.org/2000/svg"><g fill="#e9731f" transform=""><path d="m30.9478372 18.9867378c-3.4427205 0-6.2337431 2.7908806-6.2337431 6.2337432 0 3.4427205 2.7908806 6.2337431 6.2337431 6.2337431 3.4427205 0 6.2337432-2.7908806 6.2337432-6.2337431 0-3.4428626-2.7908806-6.2337432-6.2337432-6.2337432zm0 9.4989087c-1.8033906 0-3.2653075-1.4619169-3.2653075-3.2653076 0-1.8033906 1.4619169-3.2653075 3.2653075-3.2653075 1.8033907 0 3.2653076 1.4619169 3.2653076 3.2653075 0 1.8033907-1.4619169 3.2653076-3.2653076 3.2653076z"/><path d="m55.8085207 4.73816182-40.5190462-4.60094731c-1.5725692-.22357726-3.1658768.23550896-4.3783644 1.26163484-1.21234555.94004721-1.98946829 2.33349888-2.15210868 3.85890943l-.74203787 6.08530712h-2.30068672c-3.26530755 0-5.71428821 2.8941466-5.71428821 6.1594542v30.3521046c-.08224348 3.1137466 2.37525982 5.7047713 5.48914846 5.7870148.07499924.0019365.15014051.0019365.22513975.0019365h40.74162917c3.2653076 0 6.2337432-2.5236437 6.2337432-5.7889513v-1.1873458c1.0123476-.1955946 1.9727071-.5999939 2.8199996-1.1873458 1.2024025-1.0123476 1.972281-2.4459978 2.1521087-4.0073454l3.4137435-30.1295218c.3480078-3.27283585-2.0006898-6.21698191-5.2689803-6.60490408zm-6.0851651 43.11646288c0 1.6326538-1.6327958 2.8199996-3.2654496 2.8199996h-40.74162917c-1.47484289.0433235-2.70551213-1.1171761-2.74883556-2.5920189-.0022727-.0759936-.00118575-.1519871.00298293-.2279807v-5.4915632l11.5027234-8.4599988c1.3818041-1.0609266 3.328091-.9666094 4.6010893.222583l8.0889799 7.124217c1.2283965 1.0313815 2.7746876 1.6079381 4.3785064 1.6326537 1.2539645.0153408 2.4873326-.3186047 3.5621795-.9647628l14.6194529-8.4599988zm-.000142-17.8847604-16.1779597 9.4247616c-1.3891904.823003-3.1475531.6739988-4.3785064-.3710189l-8.1631269-7.198506c-2.3396067-2.0103488-5.7591741-2.133643-8.2374158-.296872l-9.7957806 7.124217v-21.1499259c0-1.6326538 1.11319885-3.1910186 2.74585263-3.1910186h40.74162917c1.7443004.0723004 3.1529508 1.4489909 3.2653076 3.1910186zm8.3886927-19.0275045c-.0009943.009801-.0018466.0197441-.0029829.0295452l-3.4878905 30.1295217c.0059658.781242-.3502805 1.5211492-.9647629 2.0036727-.296872.296872-.9647629.4453079-.9647629.5937439v-26.1963232c-.1171863-3.3807894-2.8518174-6.0828924-6.2337431-6.1594542h-35.4725069l.6678909-5.78843515c.1448849-.7495662.5367843-1.42882063 1.1131988-1.92952574.6508457-.4499954 1.4377694-.6597944 2.2263978-.59374393l40.4448993 4.67523632c1.6318015.15497001 2.8292324 1.6036768 2.6742624 3.2357624z"/></g></svg>