<svg height="48" viewBox="0 0 33 48" width="33" xmlns="http://www.w3.org/2000/svg"><path d="M32.22 11.947c-.17-.64-.516-1.323-.773-1.92C28.382 2.645 21.685 0 16.277 0 9.037 0 1.064 4.864 0 14.89v2.049c0 .085.03.853.071 1.237.597 4.778 4.36 9.857 7.17 14.635C10.264 37.93 13.4 42.966 16.509 48c1.917-3.285 3.826-6.613 5.7-9.813.51-.94 1.102-1.878 1.613-2.774.34-.597.991-1.194 1.289-1.75C28.134 28.118 33 22.529 33 17.025v-2.261c0-.597-.738-2.688-.78-2.816zM16.41 22.23c-2.128 0-4.458-1.067-5.607-4.011-.172-.469-.158-1.408-.158-1.494v-1.323c0-3.754 3.181-5.46 5.948-5.46 3.407 0 6.042 2.73 6.042 6.144s-2.819 6.144-6.225 6.144z" fill="#f58025"/></svg>