<svg xmlns="http://www.w3.org/2000/svg" viewBox="0 0 480 480" width="58" height="58">
  <path d="M77.68 194.32a8.374 8.374 0 00-11.36 0 9.224 9.224 0 00-1.68 2.64A6.69 6.69 0 0064 200a8.002 8.002 0 004.906 7.473c3 1.257 6.469.57 8.766-1.739s2.965-5.777 1.687-8.773a9.224 9.224 0 00-1.68-2.64zm0 0M221.68 194.32a12.148 12.148 0 00-2.64-1.77 8.1 8.1 0 00-6.08 0 10.458 10.458 0 00-2.64 1.77 9.224 9.224 0 00-1.68 2.64 7.998 7.998 0 002.95 9.7 7.996 7.996 0 0010.09-.98 9.309 9.309 0 001.68-2.64 7.518 7.518 0 000-6.08 9.224 9.224 0 00-1.68-2.64zm0 0M128 120h16v16h-16zm0 0M96 120h16v16H96zm0 0M160 120h16v16h-16zm0 0M224 120h16v16h-16zm0 0M192 120h16v16h-16zm0 0" fill="#E9731F" />
  <path d="M472 64h-28.902l4.488-13.473A8.005 8.005 0 00440 40h-24V8a8 8 0 00-16 0v32a7.997 7.997 0 00-6.152 2.871L376.246 64H344a8 8 0 000 16h18.922l-6.676 8H252l-21.602-28.8A7.998 7.998 0 00224 56h-32V40h168a8 8 0 000-16H192v-8a8 8 0 00-16 0v8H8a8 8 0 000 16h168v16h-32a8.001 8.001 0 00-7.16 4.426L123.055 88H80a24.07 24.07 0 00-19.2 9.602L43.442 120.8l-22.882 4.566C7.812 128.094-.851 139.965.44 152.937 1.731 165.91 12.566 175.84 25.601 176H64v8h16v-8h128v8h16v-8h33.36a23.876 23.876 0 0017.015-7.063L307.313 136H376c2.52 0 4.89-1.188 6.398-3.2L400 109.337V128a8 8 0 0016 0v-24h8a8.007 8.007 0 007.586-5.473L437.762 80H472a8 8 0 000-16zm-323.055 8H220l12 16h-91.055zm107.856 65.719L243.473 160H25.602c-4.883-.07-8.934-3.793-9.414-8.652s2.761-9.305 7.53-10.332L48.802 136H80v-16H64l9.602-12.8A8.048 8.048 0 0180 104h164l11.922 15.887a15.999 15.999 0 01.879 17.832zM400 88a7.998 7.998 0 00-6.398 3.2L372 120h-68a8.001 8.001 0 00-5.656 2.344l-34.055 34.054 6.262-10.445a31.86 31.86 0 00-1.832-35.656L264 104h96a7.997 7.997 0 006.152-2.871L383.754 80H400zm0-24h-2.922L400 60.504zm18.23 24H416v-8h4.902zm8-24H416v-8h12.895zm0 0" fill="#E9731F" />
</svg>