<?xml version="1.0" encoding="UTF-8"?>
<svg width="79px" height="62px" viewBox="0 0 79 62" version="1.1" xmlns="http://www.w3.org/2000/svg" xmlns:xlink="http://www.w3.org/1999/xlink">
    <!-- Generator: Sketch 63.1 (92452) - https://sketch.com -->
    <title>left-quote</title>
    <desc>Created with Sketch.</desc>
    <g id="Mockups" stroke="none" stroke-width="1" fill="none" fill-rule="evenodd">
        <g id="Career-Index" transform="translate(-212.000000, -1172.000000)" fill="#123759" fill-rule="nonzero">
            <g id="left-quote" transform="translate(212.000000, 1172.000000)">
                <path d="M34.4,27.104 L34.4,61.6 L0,61.6 L0,26.6112 C0,2.9568 22.1142857,0 22.1142857,0 L25.0628571,6.8992 C25.0628571,6.8992 15.2342857,8.3776 13.2685714,16.2624 C11.3028571,22.176 15.2342857,27.104 15.2342857,27.104 L34.4,27.104 Z" id="Path"></path>
                <path d="M78.4,27.104 L78.4,61.6 L44,61.6 L44,26.6112 C44,2.9568 66.1142857,0 66.1142857,0 L69.0628571,6.8992 C69.0628571,6.8992 59.2342857,8.3776 57.2685714,16.2624 C55.3028571,22.176 59.2342857,27.104 59.2342857,27.104 L78.4,27.104 Z" id="Path"></path>
            </g>
        </g>
    </g>
</svg>