<svg width="58" height="58" viewBox="0 0 58 58" version="1.1" xmlns="http://www.w3.org/2000/svg"><g id="Mockups" stroke="none" stroke-width="1" fill="none" fill-rule="evenodd"><g id="Company-History" transform="translate(-692 -184)" fill="#E9731F" fill-rule="nonzero"><g id="compass-icon" transform="translate(692 184)"><path d="M29 0C12.984 0 0 12.984 0 29s12.984 29 29 29 29-12.984 29-29C57.982 12.991 45.009.018 29 0zm0 56.067C14.052 56.067 1.933 43.948 1.933 29S14.052 1.933 29 1.933 56.067 14.052 56.067 29C56.05 43.941 43.94 56.05 29 56.067z" id="Shape"/><path d="M29 5C15.745 5 5 15.745 5 29s10.745 24 24 24 24-10.745 24-24C52.985 15.751 42.249 5.015 29 5zm0 46.08C16.805 51.08 6.92 41.195 6.92 29 6.92 16.805 16.805 6.92 29 6.92c12.195 0 22.08 9.885 22.08 22.08-.014 12.189-9.891 22.066-22.08 22.08z" id="Shape"/><path d="M43.716 15.282a.965.965 0 0 0-1.158-.156l-17.234 9.836c-.01.007-.015.019-.026.025-.11.095-.213.198-.309.309-.006.01-.017.015-.024.025l-9.838 17.235a.966.966 0 0 0 1.317 1.317l17.23-9.836c.01-.007.015-.018.026-.024.11-.095.214-.198.309-.31.006-.01.017-.015.024-.025l9.839-17.232a.965.965 0 0 0-.156-1.164zm-25.16 25.161l7.459-13.062 5.608 5.604-13.066 7.458zm14.428-8.82l-5.599-5.599 13.062-7.458-7.463 13.058z" id="Shape"/><path d="M14 28h-4a1 1 0 0 0 0 2h4a1 1 0 0 0 0-2zm35 0h-4a1 1 0 0 0 0 2h4a1 1 0 0 0 0-2zM29 15a1 1 0 0 0 1-1v-4a1 1 0 0 0-2 0v4a1 1 0 0 0 1 1zm0 29a1 1 0 0 0-1 1v4a1 1 0 0 0 2 0v-4a1 1 0 0 0-1-1z" id="Path"/></g></g></g></svg>