<svg xmlns="http://www.w3.org/2000/svg" xmlns:xlink="http://www.w3.org/1999/xlink" width="16" height="16" viewBox="0 0 16 16"><defs><path id="a" d="M8 2.534c1.78 0 1.991.007 2.694.04.759.034 1.463.186 2.004.728.542.541.694 1.245.729 2.004.032.703.039.914.039 2.694 0 1.78-.007 1.991-.04 2.694-.034.759-.186 1.463-.728 2.004-.541.542-1.245.694-2.004.729-.703.032-.914.039-2.694.039-1.78 0-1.991-.007-2.694-.04-.759-.034-1.463-.186-2.004-.728-.542-.541-.694-1.245-.729-2.004C2.541 9.99 2.534 9.78 2.534 8c0-1.78.007-1.991.04-2.694.034-.759.186-1.463.728-2.004.541-.542 1.245-.694 2.004-.729.703-.032.914-.039 2.694-.039zm.877-1.2c1.038.003 1.296.013 1.872.04 1.083.049 2.035.314 2.799 1.078.764.764 1.03 1.716 1.079 2.8.029.642.038.89.04 2.272v.952c-.002 1.382-.011 1.63-.04 2.273-.05 1.083-.315 2.035-1.08 2.799-.763.764-1.715 1.03-2.798 1.079-.643.029-.89.038-2.273.04h-.952c-1.382-.002-1.63-.011-2.273-.04-1.083-.05-2.035-.315-2.799-1.08-.764-.763-1.03-1.715-1.079-2.798a34.396 34.396 0 0 1-.039-1.872V7.123c.003-1.038.013-1.296.04-1.872.049-1.083.314-2.035 1.078-2.799.764-.764 1.716-1.03 2.8-1.079a34.54 34.54 0 0 1 1.871-.039zM8 4.577a3.423 3.423 0 1 0 0 6.847 3.423 3.423 0 0 0 0-6.847zm0 1.2a2.222 2.222 0 1 1 0 4.445 2.222 2.222 0 0 1 0-4.444zm3.559-2.136a.8.8 0 1 0 0 1.6.8.8 0 0 0 0-1.6z"/></defs><g fill="none" fill-rule="evenodd" opacity=".99"><path d="M0 0h16v16H0z"/><mask id="b" fill="#fff"><use xlink:href="#a"/></mask><use fill="#000" xlink:href="#a"/><g fill="#E9731F" mask="url(#b)"><path d="M0 0h16v16H0z"/></g></g></svg>