<svg xmlns="http://www.w3.org/2000/svg" xmlns:xlink="http://www.w3.org/1999/xlink" width="16" height="16" viewBox="0 0 16 16"><defs><path id="a" d="M14.111 1.333H1.89c-.333 0-.556.223-.556.556V14.11c0 .333.223.556.556.556h12.22c.333 0 .556-.223.556-.556V1.89c0-.333-.223-.556-.556-.556zm-8.833 11.39H3.333v-6.39h2v6.39h-.055zm-1-7.279c-.611 0-1.167-.5-1.167-1.166 0-.611.5-1.167 1.167-1.167.61 0 1.166.5 1.166 1.167 0 .666-.5 1.166-1.166 1.166zm8.444 7.278h-2v-3.11c0-.723 0-1.668-1-1.668-1.055 0-1.166.778-1.166 1.612v3.166h-2V6.333h1.888v.89c.278-.5.89-1 1.89-1 2 0 2.388 1.333 2.388 3.055v3.444z"/></defs><g fill="none" fill-rule="evenodd" opacity=".99"><path d="M0 0h16v16H0z"/><mask id="b" fill="#fff"><use xlink:href="#a"/></mask><use fill="#0077B5" xlink:href="#a"/><g fill="#E9731F" mask="url(#b)"><path d="M0 0h16v16H0z"/></g></g></svg>