<svg xmlns="http://www.w3.org/2000/svg" width="17" height="19" viewBox="0 0 17 19">
    <path fill="currentColor" fill-rule="nonzero" d="M6.219 2.235a9.652 9.652 0 0 0 .323 3.052c.14.49-.017 1.033-.354 1.33L4.647 8.452c1.066 2.276 2.357 3.71 4.493 4.992l1.933-1.302a1.374 1.374 0 0 1 1.408-.264 9.667 9.667 0 0 0 3.006.643c.752.039 1.33.682 1.291 1.433l-.163 3.118a1.366 1.366 0 0 1-1.434 1.29C6.571 17.912-.066 10.54.385 1.93c.04-.751.683-1.33 1.434-1.29L4.928.8c.75.04 1.33.683 1.29 1.434zm-4.4-.595a.417.417 0 0 0-.438.394c-.42 8.03 5.77 14.906 13.8 15.326a.417.417 0 0 0 .438-.394l.162-3.095a.417.417 0 0 0-.394-.437 10.512 10.512 0 0 1-3.269-.699c-.153-.056-.316-.026-.488.123l-2.215 1.498a.47.47 0 0 1-.497.018c-2.512-1.45-4.024-3.129-5.22-5.798a.467.467 0 0 1 .069-.493l1.766-2.094a.414.414 0 0 0 .12-.419A10.526 10.526 0 0 1 5.3 2.24a.417.417 0 0 0-.394-.439L1.819 1.64z"/>
</svg>
