<svg xmlns="http://www.w3.org/2000/svg" xmlns:xlink="http://www.w3.org/1999/xlink" width="16" height="16" viewBox="0 0 16 16"><defs><path id="a" d="M14.667 3.944c-.5.223-1 .39-1.556.445.556-.333 1-.889 1.222-1.5a5.044 5.044 0 0 1-1.722.667 2.69 2.69 0 0 0-2-.89A2.727 2.727 0 0 0 7.89 5.39c0 .222 0 .444.055.611a7.67 7.67 0 0 1-5.666-2.889 2.508 2.508 0 0 0-.39 1.389c0 .944.5 1.778 1.223 2.278-.444 0-.889-.111-1.222-.334V6.5c0 1.333.944 2.444 2.167 2.667-.223.055-.445.11-.723.11-.166 0-.333 0-.5-.055a2.634 2.634 0 0 0 2.556 1.89A5.558 5.558 0 0 1 2 12.277c-.222 0-.444 0-.667-.056A7.777 7.777 0 0 0 5.5 13.444c5.056 0 7.778-4.166 7.778-7.777v-.334c.555-.389 1-.889 1.389-1.389z"/></defs><g fill="none" fill-rule="evenodd" opacity=".99"><path d="M0 0h16v16H0z"/><mask id="b" fill="#fff"><use xlink:href="#a"/></mask><use fill="#1DA1F2" xlink:href="#a"/><g fill="#E9731F" mask="url(#b)"><path d="M0 0h16v16H0z"/></g></g></svg>