<?xml version="1.0" standalone="no"?>
<!DOCTYPE svg PUBLIC "-//W3C//DTD SVG 20010904//EN"
 "http://www.w3.org/TR/2001/REC-SVG-20010904/DTD/svg10.dtd">
<svg version="1.0" xmlns="http://www.w3.org/2000/svg"
 width="300.000000pt" height="300.000000pt" viewBox="0 0 300.000000 300.000000"
 preserveAspectRatio="xMidYMid meet">
<metadata>
Created by potrace 1.11, written by Peter Selinger 2001-2013
</metadata>
<g transform="translate(0.000000,300.000000) scale(0.100000,-0.100000)"
fill="#000000" stroke="none">
<path d="M1305 2529 c-103 -12 -265 -42 -265 -50 0 -3 135 -95 299 -203 331
-218 301 -189 346 -333 15 -47 61 -103 84 -103 4 0 47 123 95 273 137 424 126
387 107 388 -9 0 -25 2 -36 5 -11 2 -40 6 -65 10 -25 3 -54 8 -65 11 -36 9
-429 11 -500 2z"/>
<path d="M2240 2372 c-5 -20 -24 -89 -41 -152 -65 -244 -48 -212 -153 -286
-88 -61 -116 -93 -116 -131 0 -10 6 -13 16 -9 14 5 464 111 518 122 11 2 104
24 205 47 l184 43 -70 71 c-127 129 -299 240 -480 312 l-52 20 -11 -37z"/>
<path d="M680 2372 c-397 -166 -651 -445 -675 -742 -3 -33 -4 -60 -3 -60 2 0
78 16 171 35 92 19 182 37 200 40 17 3 39 8 47 10 8 2 26 6 40 9 14 2 93 18
175 34 83 17 161 33 175 36 14 2 72 14 130 26 58 12 114 24 125 26 11 2 67 13
125 25 114 23 175 22 278 -5 34 -9 81 -17 105 -18 54 -2 117 4 117 12 0 5
-924 592 -939 597 -3 1 -35 -10 -71 -25z"/>
<path d="M2800 1849 c-58 -14 -166 -40 -240 -58 -74 -17 -150 -36 -169 -42
-62 -20 -126 -18 -224 7 -108 27 -154 32 -210 20 l-38 -7 68 -46 c37 -26 111
-77 163 -114 52 -37 109 -77 125 -89 17 -11 53 -38 82 -58 29 -20 82 -57 118
-82 36 -25 73 -51 83 -58 9 -7 80 -58 157 -112 157 -111 143 -110 193 -15 102
195 118 426 42 628 -11 29 -26 53 -33 53 -6 0 -59 -12 -117 -27z"/>
<path d="M1642 1619 c-11 -4 -32 -10 -48 -12 -16 -3 -105 -22 -199 -42 -93
-20 -224 -48 -290 -61 -66 -14 -129 -28 -140 -30 -11 -3 -40 -9 -65 -14 -25
-5 -99 -21 -165 -35 -66 -15 -129 -28 -139 -31 -130 -26 -236 -49 -306 -64
-47 -10 -101 -22 -120 -25 -19 -4 -39 -8 -45 -9 -5 -1 -36 -8 -67 -15 l-58
-12 16 -37 c119 -287 489 -542 934 -646 177 -41 169 -41 184 -3 7 17 70 187
140 377 148 401 164 439 181 456 7 7 55 40 106 72 71 44 100 69 117 100 22 40
22 41 3 39 -11 -1 -29 -4 -39 -8z"/>
<path d="M1792 1573 c-11 -32 -33 -98 -48 -148 -15 -49 -37 -121 -50 -160 -12
-38 -43 -137 -69 -220 -26 -82 -55 -175 -65 -205 -10 -30 -37 -115 -60 -189
-23 -74 -44 -141 -48 -149 -4 -13 14 -14 134 -8 76 4 148 9 159 11 11 3 37 7
58 10 94 13 118 18 212 40 209 49 430 143 592 252 l83 55 -23 18 c-12 9 -168
115 -347 234 -179 120 -335 229 -346 243 -12 14 -34 63 -49 110 -25 78 -40
103 -91 146 -21 17 -21 17 -42 -40z"/>
</g>
</svg>
