<svg height="52" viewBox="0 0 39 52" width="39" xmlns="http://www.w3.org/2000/svg"><g fill="#e9731f" transform=""><path d="m37.6169999 10.416h-5.2939998v-4.26750003c0-.56549991-.4585001-1.024-1.024-1.024h-3.148v-.886c0-2.34099994-1.8975001-4.23849997-4.2385001-4.23849997-2.3405 0-4.238 1.89750003-4.238 4.23849997v.886h-18.59949994c-.56550003 0-1.024.45850009-1.024 1.024v39.21950003c0 .5655.45849997 1.024 1.024 1.024h5.29349991v4.27c0 .5655.45850009 1.024 1.024 1.024h30.22449993c.5655001 0 1.0240018-.4585 1.0240018-1.024v-39.2195c.0004983-.272-.1070017-.533-.2990017-.7255001-.192-.1924999-.4530001-.3009999-.7250001-.3009999zm-7.3419998-3.24350003v3.24550003h-2.124v-3.24550003zm-8.5505001-2.93249997c0-1.21.9804999-2.19049997 2.1905001-2.19049997 1.2094999 0 2.1899998.98049997 2.1899998 2.19049997v.88449997h-1.168v-.75150003c0-.56549991-.4579998-1.024-1.024-1.024-.5654999 0-1.024.45850009-1.024 1.024v.75150003h-1.1659998zm-19.62549994 40.104v-37.17150003h24.00400004v3.24550003h-18.71050013c-.56549991 0-1.024.4585-1.024 1.024v32.902zm34.49349994 5.294h-28.17600003v-37.1715h17.68650013v2.0995c0 .5655.4584999 1.024 1.024 1.024.5654999 0 1.024-.4585 1.024-1.024v-2.0995h8.4419998z"/><path d="m12.1405 20.0125h6.5145001c.5654999 0 1.024-.4585 1.024-1.024 0-.5654999-.4585001-1.024-1.024-1.024h-6.5145001c-.566 0-1.024.4585001-1.024 1.024 0 .5655.458 1.024 1.024 1.024z"/><path d="m11.1165 27.356c0 .5655.458 1.024 1.024 1.024h20.7284999c.5655001 0 1.024-.4585 1.024-1.024s-.4584999-1.024-1.024-1.024h-20.7284999c-.566 0-1.024.4585-1.024 1.024z"/><path d="m32.8689999 31.6875h-20.7284999c-.566 0-1.024.4585-1.024 1.024 0 .5654999.458 1.024 1.024 1.024h20.7284999c.5655001 0 1.024-.4585001 1.024-1.024 0-.5655-.4584999-1.024-1.024-1.024z"/><path d="m32.8689999 37.0430001h-20.7284999c-.566 0-1.024.4584999-1.024 1.024 0 .5654999.458 1.024 1.024 1.024h20.7284999c.5655001 0 1.024-.4585001 1.024-1.024 0-.5655001-.4584999-1.024-1.024-1.024z"/><path d="m32.8689999 42.398h-20.7284999c-.566 0-1.024.4585-1.024 1.024s.458 1.024 1.024 1.024h20.7284999c.5655001 0 1.024-.4585 1.024-1.024s-.4584999-1.024-1.024-1.024z"/></g></svg>