<svg height="41" viewBox="0 0 81 41" width="81" xmlns="http://www.w3.org/2000/svg"><g fill="none" fill-rule="evenodd" stroke="#e9731f" stroke-width="1.2825" transform="translate(1 1)"><path d="m47.5514888 25.6638307-2.7689175-.04617v-3.81159l1.1734875.1167075c.756675.100035 1.2427425.674595 1.51335 1.1273175-.0064125-.1577475-.0141075-.807975-.02052-.9580275-.2500875-.3629475-.6322725-.7579575-1.1709225-.9067275v-4.70934l.1102949.038475c.4411801.1192725.7412851 1.8147375.8990326 3.0048975-.0577125-.7169175-.1141425-1.2504375-.156465-1.5941475-.13851-1.1196225-.2911275-3.4306875-6.4932975-3.798765h-.17442-.14877-.23085c-6.20217.3680775-6.353505 2.6791425-6.4932975 3.798765-.0423225.34371-.0987525.87723-.156465 1.5941475.156465-1.19016.4578525-2.885625.8990325-3.0048975l.110295-.038475v4.70934c-.53865.14877-.920835.54378-1.1709225.9067275-.0064125.1500525-.0141075.80028-.02052.9580275.2706075-.4527225.756675-1.0272825 1.51335-1.1273175l1.1734875-.1167075v3.81159l-2.7689175.04617c-.0064125.464265-.0089775.9477675-.0089775 1.4505075 0 4.9106925 2.08791 6.076485 3.193425 6.076485h3.6564075.1090125v1.772415h.9477675c.21546 0 .4347675.37962.4347675 1.2299175v.9747h-.505305v-1.033695c0-.3078-.2757375-.556605-.6156-.556605-.341145 0-.618165.248805-.618165.556605v2.62656c0 .3065175.27702.556605.618165.556605.3398625 0 .6156-.2500875.6156-.556605v-1.1067975h.925965v-.4860675h-.0064125v-.9747c0-1.485135-.5937975-1.6454475-.849015-1.6454475h-.3603825v-1.356885h3.660255c1.105515 0 3.193425-1.1657925 3.193425-6.076485 0-.50274-.002565-.9862425-.0089775-1.4505075zm-9.0403425-4.8593925-3.208815.2757375v-4.7670525l3.208815-.2757375zm2.8612575-.0474525h-.85158-.2064825-.967005v-4.76577h.967005.14877.9092925zm.74385.0474525v-4.7670525l3.1613625.2757375v4.7670525z"/><path d="m58.975614 25.4322112-10.75761-8.12079c-.2911275-1.36458-1.3992075-3.4845525-7.22304-3.8308275l-.0218025-.0012825h-.566865v.00513h-.0910575v-.00513h-.5681475l-.0218025.0012825c-5.82255.346275-6.93063 2.4662475-7.2217575 3.8308275l-10.7537625 8.118225-.2731725 3.1280175h-.2295675v5.0286825h-1.0503675c-.2398275 0-.48222.423225-.48222 1.367145v1.0837125h.55917v-1.1504025c0-.341145.3065175-.6156.6835725-.6156.37962 0 .6861375.274455.6861375.6156v2.916405c0 .341145-.3065175.6168825-.6861375.6168825-.377055 0-.6835725-.2757375-.6835725-.6168825v-1.2299175h-1.0272825v-.536085h.007695v-1.0837125c0-1.649295.659205-1.828845.9426375-1.828845h.3988575v-4.5669825h-.2116125l-.2757375-3.1741875v-3.82698h1.6454475v.4911975l11.65023-8.96211-1.5864525-.592515-.1603125-1.82115.71307-3.29089495 1.2837825-1.531305v-.012825h.0089775l.0192375-.023085.1295325.02565 2.721465.033345v-.751545l-36.071595-3.03696 1.37997-2.0686725 34.691625 4.2822675v-1.0144575c0-.633555 1.7326575-1.14912 3.8718675-1.14912 2.1379275 0 3.870585.515565 3.870585 1.14912v.80541l33.003855-4.07322 1.37997 2.52909-34.383825 2.46753v.8605575l2.634255-.033345.1295325-.02565.0192375.023085h.0089775v.012825l1.2837825 1.531305.71307 3.29089495-.1603125 1.82115-1.551825.62073 11.6156025 8.933895.04104-.4911975h1.6454475v3.82698l-.2757375 3.1741875h-.212895v4.5669825h.40014c.2834325 0 .9426375.17955.9426375 1.828845v1.0837125h.007695v.536085h-1.028565v1.2299175c0 .341145-.3065175.6168825-.6835725.6168825-.3783375 0-.684855-.2757375-.684855-.6168825v-2.916405c0-.341145.3065175-.6156.684855-.6156.377055 0 .6835725.274455.6835725.6156v1.1504025h.5604525v-1.0837125c0-.94392-.2423925-1.367145-.48222-1.367145h-1.0503675v-5.0286825h-.2295675l-.27702-3.1741875m-14.35374-13.007115c1.4402475 0 2.608605-1.1683575 2.608605-2.60988745 0-1.4402475-1.1683575-2.608605-2.608605-2.608605-1.4428125 0-2.6098875 1.1683575-2.6098875 2.608605 0 1.44152995 1.167075 2.60988745 2.6098875 2.60988745m-8.58762 0c1.44153 0 2.608605-1.1683575 2.608605-2.60988745 0-1.4402475-1.167075-2.608605-2.608605-2.608605s-2.6098875 1.1683575-2.6098875 2.608605c0 1.44152995 1.1683575 2.60988745 2.6098875 2.60988745"/></g></svg>