<?xml version="1.0" encoding="utf-8"?><svg xmlns="http://www.w3.org/2000/svg" width="72" height="105" viewBox="0 0 72 105">
    <path fill="#F58025" fill-rule="nonzero" stroke="#FFF" d="M30.942 11.73c-1.953-4.6-7.093-7.654-11.257-8.982C15.778 1.505 7.08 1.25 3.525 1.2a2.444 2.444 0 0 0-2.21 1.253 2.413 2.413 0 0 0 .047 2.46l4.427 7.194a23.074 23.074 0 0 1 2.799 6.288 10.646 10.646 0 0 0 9.736 8.338c.439.045.879.067 1.32.067a12.288 12.288 0 0 0 6.816-2.048 44.291 44.291 0 0 1 5.868 10.923C14.679 38.043 1.822 53.588 2.807 71.368c.985 17.78 15.48 31.81 33.283 32.214 17.802.404 32.92-12.954 34.71-30.67 1.791-17.717-10.348-33.83-27.87-36.997.44-1.3.897-2.54 1.382-3.664a13.483 13.483 0 0 0 5.903 1.365c.49 0 .978-.024 1.464-.075A11.875 11.875 0 0 0 62.44 24.11a27.245 27.245 0 0 1 3.181-7.324l4.982-8.29c.476-.79.487-1.776.029-2.576a2.59 2.59 0 0 0-2.246-1.29h-.038c-4.966.075-13.928.404-18.131 1.776-4.594 1.499-10.286 4.95-12.481 10.106a11.211 11.211 0 0 0 .353 9.504 13.491 13.491 0 0 0 3.327 4.335 53.448 53.448 0 0 0-1.936 5.12c-.872-.07-1.747-.137-2.64-.137-.341 0-.66.041-.993.05a47.846 47.846 0 0 0-6.815-12.952 12.058 12.058 0 0 0 1.548-2.335 9.752 9.752 0 0 0 .362-8.366zm10.223 12.8a7.784 7.784 0 0 1-.287-6.681c1.442-3.388 5.524-6.605 10.4-8.192 3.497-1.14 11.575-1.478 15.603-1.577l-4.182 6.944a30.55 30.55 0 0 0-3.561 8.24 8.518 8.518 0 0 1-7.812 6.87 10.185 10.185 0 0 1-5.52-.979 34.551 34.551 0 0 1 2.25-3.68l4.3-.382a1.714 1.714 0 1 0-.311-3.413l-.896.082a15.788 15.788 0 0 1 5.002-3.584 1.708 1.708 0 1 0-1.075-3.243 18.191 18.191 0 0 0-6.29 4.337v-1.005a1.707 1.707 0 1 0-3.413 0v5.055a37.798 37.798 0 0 0-2.372 3.83 10.07 10.07 0 0 1-1.836-2.624v.002zM30.013 39.54v5.632a1.707 1.707 0 0 1-.952 1.527l-2.403 1.195a1.659 1.659 0 0 1-2.08-.473l-3.17-4.473a30.438 30.438 0 0 1 8.605-3.408zM9.363 55.813l8.717-.024-3.893 4.731a5.484 5.484 0 0 0-1.24 3.468 2.068 2.068 0 0 1-2.065 2.065h-4.56a30.467 30.467 0 0 1 3.04-10.24zm1.08 29.29l1.98-3.942a5.695 5.695 0 0 1 5.12-3.158 5.576 5.576 0 0 1 3.149.961l6.867 4.576c.47.314.75.842.748 1.406v4.3a4.142 4.142 0 0 1-1.207 2.902 7.586 7.586 0 0 0-2.207 5.335v.285A30.879 30.879 0 0 1 10.443 85.1v.003zm53.26-30.501l-1.852 3.674a1.707 1.707 0 0 1-1.536.95h-1.288a5.12 5.12 0 0 0-5.12 5.12 5.146 5.146 0 0 0 5.12 5.12h.658L53.25 82.319a1.457 1.457 0 0 1-2.757-.649V71.173a3.413 3.413 0 0 0-3.413-3.413h-4.267a4.267 4.267 0 0 1-4.266-4.267 4.294 4.294 0 0 1 4.266-4.266h4.267a5.12 5.12 0 0 0 5.12-5.12 5.146 5.146 0 0 0-5.12-5.12h-6.827l6.445-8.59a30.857 30.857 0 0 1 17.005 14.205zm-20.531-15.19l-5.65 7.527a3.413 3.413 0 0 0 2.731 5.461h6.827c.46 0 .901.189 1.217.524.317.311.494.738.49 1.183 0 .942-.764 1.706-1.707 1.706h-4.267a7.709 7.709 0 0 0-7.68 7.68 7.689 7.689 0 0 0 7.68 7.68h4.267V81.67a4.87 4.87 0 0 0 9.216 2.181l6.441-12.86a3.413 3.413 0 0 0-3.062-4.937h-.648c-.46.001-.901-.188-1.217-.524a1.637 1.637 0 0 1-.49-1.182c0-.943.764-1.707 1.707-1.707h1.297a5.091 5.091 0 0 0 4.577-2.833l.625-1.24a30.648 30.648 0 0 1-37.206 40.39v-1.484a4.142 4.142 0 0 1 1.207-2.901 7.581 7.581 0 0 0 2.193-5.325v-4.3a5.086 5.086 0 0 0-2.278-4.254l-6.853-4.57a8.989 8.989 0 0 0-5.068-1.536 9.081 9.081 0 0 0-8.148 5.038l-.864 1.717A30.55 30.55 0 0 1 6.12 69.467h4.762a5.485 5.485 0 0 0 5.478-5.479 2.1 2.1 0 0 1 .464-1.305l3.908-4.747a3.413 3.413 0 0 0-2.665-5.536h-6.752a30.945 30.945 0 0 1 7.248-7.567l3.258 4.592a5.101 5.101 0 0 0 4.096 2.069c.797 0 1.583-.19 2.292-.553l2.39-1.195a5.094 5.094 0 0 0 2.828-4.582v-6.216a29.986 29.986 0 0 1 9.745.463v.001zM24.656 17.318l.237-4.072a1.71 1.71 0 1 0-3.413-.198l-.07 1.217a39.962 39.962 0 0 0-5.932-4.317 1.707 1.707 0 1 0-1.656 2.984 36.352 36.352 0 0 1 4.94 3.584l-.793.044a1.707 1.707 0 1 0 .098 3.413h.099l4.044-.23a47.137 47.137 0 0 1 2.113 2.314 8.967 8.967 0 0 1-5.652 1.284 7.216 7.216 0 0 1-6.777-5.803 26.527 26.527 0 0 0-3.197-7.218L5.207 4.65a66.17 66.17 0 0 1 13.442 1.352c4.324 1.377 7.915 4.149 9.15 7.06a6.296 6.296 0 0 1-.276 5.52 8.646 8.646 0 0 1-.682 1.133 44.904 44.904 0 0 0-2.185-2.396z"/>
</svg>
