<svg height="42" viewBox="0 0 42 42" width="42" xmlns="http://www.w3.org/2000/svg"><g fill="#e9731f"><path d="M28.135 12.648a.81.81 0 1 0-.001 1.62.81.81 0 0 0 0-1.62zM13.417 27.365a.81.81 0 1 0 0 1.62.81.81 0 0 0 0-1.62z"/><path d="M40.505 5.064a.81.81 0 0 0-.758.218l-3.358 3.385h-1.61l-1.772-1.836V5.199l3.31-3.36a.81.81 0 0 0-.319-1.336 8.08 8.08 0 0 0-2.586-.422 8.01 8.01 0 0 0-6.576 3.375c-1.442 2.008-1.887 4.469-1.25 6.824l-5.967 5.966-9.94-9.963V4.328a.81.81 0 0 0-.393-.695L3.559.196a.81.81 0 0 0-.99.122L.28 2.608a.81.81 0 0 0-.122.99l3.436 5.728a.81.81 0 0 0 .694.393h1.955l9.94 9.964-5.943 5.943c-2.355-.636-4.817-.191-6.826 1.252a8.008 8.008 0 0 0-3.372 6.574c0 .885.142 1.755.422 2.587a.81.81 0 0 0 1.342.312l3.358-3.385h1.619l1.844 1.845v1.618l-3.384 3.358a.81.81 0 0 0 .312 1.343c.831.28 1.702.422 2.586.422a8.008 8.008 0 0 0 6.574-3.373c1.444-2.009 1.889-4.47 1.252-6.826l4.774-4.773 1.093 1.187-.502.502a.81.81 0 1 0 1.146 1.146l.455-.455 10.26 11.145.023.024a4.859 4.859 0 0 0 6.873 0 4.867 4.867 0 0 0 0-6.874l-.025-.024-11.162-10.24.45-.45a.81.81 0 1 0-1.146-1.145l-.499.499-1.19-1.092 4.797-4.797a8.116 8.116 0 0 0 2.099.275c4.466 0 8.1-3.634 8.1-8.1a8.08 8.08 0 0 0-.423-2.587.81.81 0 0 0-.584-.53zM7.15 8.338a.802.802 0 0 0-.573-.23H4.746l-2.875-4.8L3.268 1.91l4.791 2.876v1.832c0 .214.085.42.237.572l10.178 10.2-1.146 1.146zm20.604 15.8l11.2 10.274a3.24 3.24 0 1 1-4.583 4.582l-10.294-11.18zM26.56 23.04l-3.58 3.58-1.094-1.188 3.484-3.484zm6.852-8.38a6.473 6.473 0 0 1-2.07-.338.811.811 0 0 0-.832.195L14.477 30.551a.81.81 0 0 0-.194.831 6.42 6.42 0 0 1-.884 5.852 6.406 6.406 0 0 1-5.259 2.698c-.237 0-.473-.013-.706-.038l2.573-2.553a.81.81 0 0 0 .24-.575v-2.291a.81.81 0 0 0-.238-.573l-2.32-2.319a.81.81 0 0 0-.572-.237H4.826a.811.811 0 0 0-.575.24l-2.553 2.572a6.553 6.553 0 0 1-.038-.706c0-2.11.984-4.027 2.698-5.258a6.413 6.413 0 0 1 5.852-.884.81.81 0 0 0 .832-.195l16.032-16.033a.81.81 0 0 0 .195-.831 6.41 6.41 0 0 1 .882-5.85 6.407 6.407 0 0 1 5.26-2.7c.245 0 .487.014.728.04l-2.52 2.557a.81.81 0 0 0-.232.568v2.292c0 .21.08.411.227.562l2.238 2.32a.81.81 0 0 0 .582.247h2.292a.81.81 0 0 0 .575-.24l2.552-2.572a6.487 6.487 0 0 1-6.442 7.186z"/><path d="M25.271 15.176L15.135 25.312a.81.81 0 0 0 1.146 1.145l10.136-10.136a.81.81 0 1 0-1.146-1.145zm10.236 21.517a.81.81 0 0 0 1.144-1.147l-7.301-7.278a.81.81 0 0 0-1.144 1.147z"/></g></svg>