<svg height="42" viewBox="0 0 42 42" width="42" xmlns="http://www.w3.org/2000/svg"><g fill="#e9731f" transform=""><path d="m28.1345274 12.6480235c-.4470821 0-.81.3619687-.81.8096835 0 .4473985.3629179.81.81.81.4480312 0 .81-.3626015.81-.81 0-.4477148-.3619688-.8096835-.81-.8096835z"/><path d="m13.417207 27.3650274c-.4480312 0-.81.3629179-.81.81 0 .4480312.3619688.81.81.81.447082 0 .81-.3619688.81-.81 0-.4470821-.362918-.81-.81-.81z"/><path d="m40.5047461 5.06408201c-.273375-.06359764-.5606719.01898438-.7581094.21832035l-3.3580195 3.38459764h-1.609875l-1.7721914-1.83610549v-1.63233978l3.3099257-3.35928522c.1958555-.19870312.2755899-.48441799.2107266-.7562109-.0645468-.2714766-.2645156-.49042972-.5290312-.57965625-.8315156-.28033597-1.7016329-.42247921-2.5866211-.42247921-2.6381953 0-5.0349727 1.23026435-6.5758711 3.37518234-1.4421797 2.00791402-1.8867305 4.46860549-1.2498047 6.82361711l-5.9664726 5.9664727-9.94021879-9.96300003v-1.95539054c0-.28444924-.14934375-.54833209-.39329298-.69451174l-5.72726952-3.43680473c-.3189375-.19142576-.72678513-.14111715-.98940236.12181647l-2.29078125 2.29046478c-.26261723.26293361-.31292576.67078125-.12181639.98971875l3.43617188 5.72726951c.14617965.24394924.40974603.3929766.69419527.39329299l1.95475785.00063285 9.94116789 9.96299999-5.9436914 5.9436914c-2.35501162-.6366094-4.81696871-.1914258-6.82583197 1.2517031-2.14365237 1.5399493-3.37289063 3.9360938-3.37289063 6.5742891 0 .8846718.14206639 1.7551054.42240236 2.5863047.08954291.2660976.3107109.4670156.5840859.5302968.27369147.0635977.56067188-.0189843.75842576-.2183202l3.35770321-3.3842813h1.61873429l1.84433209 1.844332v1.6187344l-3.38428125 3.3577031c-.19933597.1977539-.28191798.4847344-.21832035.7584258.06328125.273375.26419924.494543.53029688.584086.83119924.2803359 1.70163285.4224023 2.58630472.4224023 2.63819529 0 5.03402339-1.2295547 6.57428899-3.3732071 1.4431289-2.0088632 1.8883125-4.4705038 1.2517032-6.8255156l4.7736211-4.7736211 1.0935 1.1877891-.5018204.5015039c-.3164062.3164063-.3164062.8293008 0 1.145707.3164063.3160899.8289845.3160899 1.1457071 0l.4543594-.4543594 10.259789 11.144461c.0075938.0082265.015504.0161367.0234141.0240469 1.8984375 1.8984375 4.9742227 1.8990703 6.8736094-.0003165 1.8940078-1.894957 1.8940078-4.9783359 0-6.8732929-.0082266-.0082266-.0167695-.0161367-.0253125-.0240469l-11.1618633-10.2401718.4492968-.4492969c.3164063-.3160899.3164063-.8289844 0-1.1453906-.3164062-.3164063-.8289843-.3164063-1.145707 0l-.4983398.4986562-1.1900039-1.0922344 4.7967187-4.7967187c.6818555.18225 1.385543.2746406 2.0984063.2746406 4.4663906 0 8.0996836-3.6336094 8.0996836-8.0996836 0-.88498826-.1420664-1.75510549-.4224024-2.58662111-.089543-.26609764-.3107109-.46701563-.5840859-.53029688zm-33.35364846 3.2735391c-.151875-.15219138-.35785541-.22971097-.57301166-.22971097l-1.83199223-.00063278-2.87486723-4.79988285 1.39630084-1.39630076 4.79165625 2.8755v1.83199223c0 .21452339.08511326.4201875.23667188.5720625l10.17815621 10.20125392-1.145707 1.1453906zm20.60342586 15.80006249 11.199832 10.2746601c1.2510703 1.2643594 1.2472734 3.3115078-.011707 4.5711212-1.2618282 1.2618281-3.304547 1.265625-4.5714375.0110741l-10.2933282-11.1808476zm-1.19475-1.0963476-3.5801368 3.5795039-1.0935-1.1877891 3.4836328-3.4839493zm6.8517773-8.3806524c-.7084336 0-1.4051602-.1135899-2.0702461-.3376055-.2914102-.0977695-.6135117-.0224648-.8311992.1949063-4.0607579 4.0607578-12.8106563 12.8103398-16.0326211 16.0326211-.2176875.2176875-.2933086.539789-.1949063.8315156.6733125 1.9993711.3512109 4.1319492-.8840391 5.8516172-1.2317695 1.7146055-3.1485585 2.6983125-5.25835539 2.6983125-.23698834 0-.47271097-.0129727-.70621875-.0379688l2.57269914-2.5527656c.1531407-.151875.2395196-.3588047.2395196-.5749101v-2.2914141c0-.2148398-.0854297-.4208203-.2373047-.5726953l-2.3189414-2.3189414c-.151875-.151875-.35785549-.2373047-.57269527-.2373047h-2.2914141c-.21610549 0-.42303514.0863789-.57522661.2395195l-2.55244916 2.5726992c-.0253125-.2335078-.03796875-.4692305-.03796875-.7062187 0-2.1101133.98339063-4.0265859 2.6983125-5.2583555 1.71935153-1.23525 3.85224612-1.5576679 5.85193359-.8840391.2914102.0984024.6135117.0227813.8311992-.1949062.0446133-.0442969 16.0212305-16.0212305 16.0326211-16.0326211.2176875-.2176875.2929922-.5394727.1949063-.8311992-.6736289-1.99937109-.3521602-4.13131644.8821406-5.84971872 1.2327187-1.7161875 3.1498242-2.70021098 5.2599375-2.70021098.2442656 0 .4869492.01360549.727418.04018361l-2.5192266 2.55687889c-.1493438.15155861-.232875.35564062-.232875.56826562v2.29141411c0 .21009375.0813164.41164451.2271797.56257027l2.2379414 2.3189414c.1525078.1582031.362918.2474297.5828203.2474297h2.2914141c.215789 0 .4227187-.0860625.5749101-.2395196l2.5524492-2.57238275c.0253125.23350777.0379688.46923049.0379688.70621875 0 3.5728594-2.9068243 6.4796836-6.4796836 6.4796836z"/><path d="m25.2710508 15.175793-10.1360743 10.1360742c-.3160898.3160898-.3160898.8289843 0 1.1453906.3164063.3164062.8293009.3164062 1.1457071 0l10.1360742-10.1360742c.3164062-.3160899.3164062-.8289844 0-1.1453906-.3164063-.3164063-.8293008-.3164063-1.145707 0z"/><path d="m35.506793 36.693c.3164062.315457.8293008.315457 1.145707-.0018985.3157735-.3167226.3148242-.8296171-.0018985-1.1453905l-7.3010741-7.2776602c-.3167227-.3157734-.8299336-.3148243-1.1453907.0018984-.3160898.3170391-.3151406.8296172.0015821 1.1453907z"/></g></svg>