<svg height="52" viewBox="0 0 39 52" width="39" xmlns="http://www.w3.org/2000/svg"><g fill="#e9731f"><path d="M37.617 10.416h-5.294V6.148c0-.565-.458-1.024-1.024-1.024h-3.148v-.886a4.238 4.238 0 1 0-8.476 0v.886h-18.6c-.565 0-1.024.459-1.024 1.024v39.22c0 .566.459 1.024 1.024 1.024h5.293v4.27c0 .566.459 1.024 1.024 1.024h30.225c.566 0 1.024-.458 1.024-1.024v-39.22a1.025 1.025 0 0 0-1.024-1.026zm-7.342-3.244v3.246h-2.124V7.172zm-8.55-2.932a2.19 2.19 0 1 1 4.38 0v.884h-1.168v-.751a1.024 1.024 0 1 0-2.048 0v.751h-1.166zM2.099 44.344V7.172h24.004v3.246H7.393c-.566 0-1.025.459-1.025 1.024v32.902zm34.493 5.294H8.417V12.466h17.687v2.1a1.024 1.024 0 0 0 2.048 0v-2.1h8.442z"/><path d="M12.14 20.012h6.515a1.024 1.024 0 0 0 0-2.048H12.14a1.024 1.024 0 1 0 0 2.049zm-1.023 7.344c0 .566.457 1.024 1.023 1.024h20.73a1.024 1.024 0 0 0 0-2.048H12.14c-.566 0-1.024.459-1.024 1.024zm21.752 4.332H12.14a1.024 1.024 0 1 0 0 2.048h20.73a1.024 1.024 0 0 0 0-2.048zm0 5.355H12.14a1.024 1.024 0 1 0 0 2.048h20.73a1.024 1.024 0 0 0 0-2.048zm0 5.355H12.14a1.024 1.024 0 1 0 0 2.048h20.73a1.024 1.024 0 0 0 0-2.048z"/></g></svg>