<svg height="41" viewBox="0 0 81 41" width="81" xmlns="http://www.w3.org/2000/svg"><g fill="none" fill-rule="evenodd" stroke="#e9731f" stroke-width="1.282"><path d="M48.551 26.664l-2.768-.046v-3.812l1.173.117c.757.1 1.243.674 1.513 1.127-.006-.158-.014-.808-.02-.958-.25-.363-.632-.758-1.171-.907v-4.709l.11.038c.441.12.742 1.815.9 3.005a39.23 39.23 0 0 0-.157-1.594c-.139-1.12-.291-3.43-6.493-3.799h-.554c-6.203.369-6.354 2.68-6.494 3.8a39.23 39.23 0 0 0-.156 1.593c.156-1.19.458-2.885.899-3.005l.11-.038v4.71c-.539.148-.92.543-1.17.906-.007.15-.015.8-.021.958.27-.453.756-1.027 1.513-1.127l1.173-.117v3.812l-2.768.046c-.007.464-.01.948-.01 1.45 0 4.911 2.088 6.077 3.194 6.077h3.766v1.772h.947c.216 0 .435.38.435 1.23v.975h-.505v-1.034c0-.308-.276-.556-.616-.556-.341 0-.618.248-.618.556v2.627c0 .306.277.556.618.556.34 0 .616-.25.616-.556v-1.107h.926v-.486h-.007v-.975c0-1.485-.594-1.645-.849-1.645h-.36V34.19h3.66c1.106 0 3.193-1.166 3.193-6.077 0-.502-.002-.986-.009-1.45zm-9.04-4.86l-3.209.276v-4.767l3.21-.276zm2.861-.047h-2.025v-4.766h2.025zm.744.047v-4.767l3.162.276v4.767z"/><path d="M59.976 26.432l-10.758-8.12c-.291-1.365-1.4-3.485-7.223-3.831l-.022-.002h-.567v.005h-.09v-.005h-.569l-.022.002c-5.822.346-6.93 2.466-7.221 3.83L22.75 26.43l-.273 3.128h-.23v5.028h-1.05c-.24 0-.483.424-.483 1.367v1.084h.56v-1.15c0-.341.306-.616.683-.616.38 0 .686.275.686.616v2.916c0 .341-.306.617-.686.617-.377 0-.683-.276-.683-.617v-1.23h-1.028v-.536h.008v-1.084c0-1.649.66-1.828.943-1.828h.399v-4.567h-.212l-.276-3.175v-3.827h1.646v.492l11.65-8.962-1.587-.593-.16-1.821.713-3.291 1.284-1.531v-.013h.009l.02-.023.129.025 2.721.034V6.12L1.462 3.084l1.38-2.068 34.691 4.282V4.283c0-.633 1.733-1.149 3.872-1.149 2.138 0 3.87.516 3.87 1.15v.805L78.28 1.016l1.38 2.529-34.383 2.467v.86l2.634-.033.13-.025.019.023h.009v.013l1.281 1.53.713 3.29-.16 1.822-1.552.62 11.616 8.935.041-.492h1.645v3.827l-.275 3.175h-.213v4.567h.4c.283 0 .943.18.943 1.828v1.084h.007v.536h-1.028v1.23c0 .341-.307.617-.684.617-.378 0-.685-.276-.685-.617v-2.916c0-.341.307-.616.685-.616.377 0 .684.275.684.616v1.15h.56v-1.084c0-.943-.242-1.367-.482-1.367h-1.05v-5.028h-.23l-.277-3.175M45.655 13.376a2.61 2.61 0 1 0-.001-5.219 2.61 2.61 0 0 0 .001 5.22m-8.587 0a2.609 2.609 0 1 0 0-5.218 2.609 2.609 0 0 0 0 5.217"/></g></svg>