<svg height="45" viewBox="0 0 45 45" width="45" xmlns="http://www.w3.org/2000/svg"><g fill="#e9731f"><path d="M15.206 16.373a.864.864 0 0 0-.864.864v1.785a.864.864 0 0 0 1.728 0v-1.785a.864.864 0 0 0-.864-.864zm3.456 0a.864.864 0 0 0-.864.864v1.785a.864.864 0 0 0 1.728 0v-1.785a.864.864 0 0 0-.864-.864zm3.456 0a.864.864 0 0 0-.864.864v1.785a.864.864 0 0 0 1.728 0v-1.785a.864.864 0 0 0-.864-.864zm3.456 0a.864.864 0 0 0-.864.864v1.785a.864.864 0 0 0 1.728 0v-1.785a.864.864 0 0 0-.864-.864zm3.456 0a.864.864 0 0 0-.864.864v1.785a.864.864 0 0 0 1.728 0v-1.785a.864.864 0 0 0-.864-.864zM10.022 39.067a.87.87 0 0 0-.61.253.87.87 0 0 0-.254.611.87.87 0 0 0 .864.864c.228 0 .45-.092.611-.253s.253-.384.253-.61a.87.87 0 0 0-.253-.612.87.87 0 0 0-.61-.253zm0-7.142a.864.864 0 0 0-.864.864v3.742a.864.864 0 0 0 1.728 0V32.79a.864.864 0 0 0-.864-.864zm4.838 0a.864.864 0 0 0-.863.864v7.142a.864.864 0 0 0 1.728 0V32.79a.864.864 0 0 0-.864-.864zm4.84 0a.864.864 0 0 0-.865.864v7.142a.864.864 0 0 0 1.728 0V32.79a.864.864 0 0 0-.864-.864zm4.838 0a.864.864 0 0 0-.864.864v7.142a.864.864 0 0 0 1.728 0V32.79a.864.864 0 0 0-.864-.864zm4.838 0a.864.864 0 0 0-.864.864v7.142a.864.864 0 0 0 1.728 0V32.79a.864.864 0 0 0-.864-.864zm4.838-.001a.87.87 0 0 0-.61.254.872.872 0 0 0-.254.61.867.867 0 0 0 1.475.61.869.869 0 0 0 .253-.61.872.872 0 0 0-.253-.61.87.87 0 0 0-.61-.254zm0 3.456a.864.864 0 0 0-.864.865v3.686a.864.864 0 0 0 1.728 0v-3.686a.864.864 0 0 0-.864-.864zM13.478 23.587a.864.864 0 0 0-.864.864v1.786a.864.864 0 0 0 1.728 0V24.45a.864.864 0 0 0-.864-.864zm3.456 0a.864.864 0 0 0-.864.864v1.786a.864.864 0 0 0 1.728 0V24.45a.864.864 0 0 0-.864-.864zm3.456 0a.864.864 0 0 0-.864.864v1.786a.864.864 0 0 0 1.728 0V24.45a.864.864 0 0 0-.864-.864zm3.456 0a.864.864 0 0 0-.864.864v1.786a.864.864 0 0 0 1.728 0V24.45a.864.864 0 0 0-.864-.864zm3.456 0a.864.864 0 0 0-.864.864v1.786a.864.864 0 0 0 1.728 0V24.45a.864.864 0 0 0-.864-.864zm3.456 0a.864.864 0 0 0-.864.864v1.786a.864.864 0 0 0 1.728 0V24.45a.864.864 0 0 0-.864-.864z"/><path d="M43.373 30.744h-3.456v-1.9a.864.864 0 0 0-.864-.865h-3.975v-5.875h.605a.864.864 0 0 0 0-1.728h-2.419v-4.497a.864.864 0 0 0-.086-1.724h-2.132v-.749c0-4.631-3.545-8.45-8.064-8.886V.878a.864.864 0 0 0-1.728 0V4.52c-4.519.436-8.064 4.255-8.064 8.886v.75h-2.13a.864.864 0 0 0-.086 1.723v4.497h-2.42a.864.864 0 0 0 0 1.728h.605v5.875H5.184a.864.864 0 0 0-.864.864v1.901H.864a.864.864 0 0 0-.864.864v11.75c0 .477.387.864.864.864h42.509a.864.864 0 0 0 .864-.864v-11.75a.864.864 0 0 0-.864-.864zM14.918 13.406c0-3.97 3.23-7.2 7.2-7.2s7.2 3.23 7.2 7.2v.75h-14.4zm-2.217 2.477h18.835v4.493H12.701zm-1.815 6.221H33.35v5.875H10.886zM1.728 32.472H4.32v10.022H1.728zm4.32-.864v-1.9h32.14v12.786H6.049zm36.46 10.886h-2.591V32.472h2.592z"/></g></svg>