<svg xmlns="http://www.w3.org/2000/svg" viewBox="0 0 30 43">
  <path fill="#CF0707" fill-rule="nonzero" stroke="#CF0707" stroke-width=".4" d="M8.198 41.9a.558.558 0 00.817-.697C5.583 29.83 10.68 24.35 12.858 22.612c-.184 7.34 3.798 12.846 3.99 13.087.14.189.386.27.613.204 1.152-.345 2.92-1.483 4.01-2.223-.305 2.943-1.552 7.55-1.566 7.6a.557.557 0 00.396.683.566.566 0 00.483-.095c.244-.188 5.97-4.642 7.814-12.13 1.866-7.55-3.358-14.921-3.563-15.228a.558.558 0 00-1.015.37c.207 3.74-.674 7.46-2.538 10.72.341-1.982.516-4.899.18-9.15-.859-10.708-10.66-15.353-10.76-15.398a.56.56 0 00-.79.574c.567 4.399-.467 6.342-3.232 11.534a187.754 187.754 0 00-4.164 8.184C-3.204 33.773 8.082 41.822 8.198 41.9zM3.72 21.82c1.65-3.463 3.034-6.058 4.142-8.146 2.585-4.857 3.775-7.09 3.462-11.129 2.359 1.395 8.555 5.813 9.196 13.987.575 7.317-.373 10.452-.984 11.67a2.34 2.34 0 01-.34.533.553.553 0 00.009.786.562.562 0 00.767.014 20.002 20.002 0 005.167-12.665c1.398 2.554 3.588 7.622 2.359 12.629-1.214 4.927-4.284 8.54-6.067 10.303.496-2.04 1.216-5.322 1.216-7.216a.558.558 0 00-.89-.448c-.031.023-2.614 1.917-4.248 2.569-.89-1.358-4.017-6.69-3.473-13.159a.555.555 0 00-.51-.6.548.548 0 00-.325.071c-.083.052-9.036 5.296-5.679 18.882C4.817 37.42-.63 30.963 3.728 21.82H3.72z"/>
</svg>