<svg xmlns="http://www.w3.org/2000/svg" xmlns:xlink="http://www.w3.org/1999/xlink" width="16" height="16" viewBox="0 0 16 16">
    <defs>
        <path id="a" d="M14.556 5.333S14.444 4.39 14 4c-.5-.556-1.056-.556-1.333-.556-1.89-.11-4.667-.11-4.667-.11s-2.778 0-4.667.11C3.056 3.5 2.5 3.5 2 4c-.389.389-.556 1.333-.556 1.333s-.11 1.056-.11 2.167v1c0 1.056.11 2.167.11 2.167S1.556 11.61 2 12c.5.556 1.167.5 1.444.556 1.056.11 4.556.11 4.556.11s2.778 0 4.667-.166c.277-.056.833-.056 1.333-.556.389-.388.556-1.333.556-1.333s.11-1.055.11-2.167v-1c0-1.055-.11-2.11-.11-2.11zM6.61 9.723V6l3.611 1.889-3.61 1.833z"/>
    </defs>
    <g fill="none" fill-rule="evenodd" opacity=".99">
        <path d="M0 0h16v16H0z"/>
        <mask id="b" fill="#fff">
            <use xlink:href="#a"/>
        </mask>
        <use fill="#CD201F" xlink:href="#a"/>
        <g fill="#E9731F" mask="url(#b)">
            <path d="M0 0h16v16H0z"/>
        </g>
    </g>
</svg>
