<svg height="48" viewBox="0 0 33 48" width="33" xmlns="http://www.w3.org/2000/svg"><path d="m1061.22039 1895.94674c-.17051-.64035-.51677-1.32267-.77292-1.92005-3.0652-7.38136-9.76258-10.02669-15.17038-10.02669-7.23932 0-15.21259 4.86414-16.27709 14.89026v2.0484c0 .08548.0294.85339.07117 1.23751.59673 4.77821 4.35945 9.85639 7.1696 14.63459 3.02332 5.11937 6.16046 10.15536 9.26853 15.18924 1.9165-3.28502 3.82609-6.61322 5.69893-9.8132.51042-.9391 1.10292-1.87764 1.6139-2.774.34058-.59683.99121-1.19366 1.28847-1.74898 3.0232-5.54633 7.8894-11.13553 7.8894-16.63979v-2.26121c.00011-.59672-.73807-2.68741-.77961-2.81608zm-15.81077 10.28292c-2.12799 0-4.45724-1.06622-5.60693-4.01075-.1713-.46871-.15749-1.40803-.15749-1.49408v-1.32266c0-3.75373 3.1808-5.46075 5.94796-5.46075 3.40666 0 6.0414 2.73105 6.0414 6.14462 0 3.41347-2.81828 6.14362-6.22494 6.14362z" fill="#f58025" transform="translate(-1029 -1884)"/></svg>