<?xml version="1.0" encoding="utf-8"?>
<!-- Generator: Adobe Illustrator 14.0.0, SVG Export Plug-In . SVG Version: 6.00 Build 43363)  -->
<!DOCTYPE svg PUBLIC "-//W3C//DTD SVG 1.1//EN" "http://www.w3.org/Graphics/SVG/1.1/DTD/svg11.dtd">
<svg version="1.1" id="Layer_1" xmlns="http://www.w3.org/2000/svg" xmlns:xlink="http://www.w3.org/1999/xlink" x="0px" y="0px"
	 width="529px" height="64px" viewBox="0 0 529 64" enable-background="new 0 0 529 64" xml:space="preserve">
<path fill="#F58025" d="M438.797,45.785c-4.568-2.962-8.783-5.694-12.502-8.108c-9.854-6.391-16.657-10.806-18.217-11.817
	c0.251-0.043,0.51-0.085,0.782-0.132c0.268-0.043,0.544-0.085,0.829-0.123c0.284-0.039,0.573-0.077,0.875-0.111
	c0.298-0.034,0.604-0.064,0.913-0.089c0.269,0,0.565,0.025,0.893,0.068c0.323,0.047,0.676,0.11,1.046,0.187
	c0.369,0.076,0.76,0.166,1.164,0.259c0.404,0.094,0.816,0.2,1.232,0.302c0.416,0.098,0.842,0.2,1.258,0.297
	c0.416,0.094,0.829,0.183,1.231,0.259c0.404,0.077,0.795,0.141,1.169,0.183c0.37,0.047,0.723,0.073,1.051,0.073l0.237-0.005
	l0.233-0.017l0.217-0.025l0.204-0.039c0.608-0.135,6.905-1.551,15.931-3.573c1.19-0.272,2.439-0.548,3.719-0.837
	c1.517,3.072,2.35,6.348,2.35,9.752C443.412,37.116,441.75,41.689,438.797,45.785"/>
<path fill="#F58025" d="M406.5,23.092c0.068-0.17,0.14-0.349,0.217-0.527c0.076-0.175,0.153-0.353,0.234-0.531
	c0.08-0.179,0.165-0.353,0.25-0.519c0.085-0.17,0.17-0.331,0.26-0.489c0.203-0.348,0.692-0.739,1.308-1.151
	c0.612-0.412,1.353-0.846,2.082-1.288c0.728-0.437,1.441-0.884,2.002-1.321c0.558-0.438,0.96-0.867,1.079-1.271
	c0.115-0.404,1.279-4.5,2.895-10.156c0.152-0.54,0.314-1.1,0.476-1.666c8.218,2.805,15.047,7.097,19.658,12.332
	c-3.234,0.701-6.349,1.373-9.272,2.006C416.656,20.895,408.446,22.671,406.5,23.092"/>
<path fill="#F58025" d="M402.357,22.654c-0.176-0.132-0.354-0.264-0.532-0.4c-0.183-0.136-0.361-0.276-0.535-0.412
	c-0.179-0.136-0.349-0.276-0.514-0.416c-0.162-0.136-0.315-0.272-0.459-0.408c-0.327-0.302-0.565-0.791-0.762-1.368
	c-0.194-0.578-0.348-1.241-0.518-1.896c-0.17-0.654-0.354-1.3-0.608-1.852c-0.251-0.553-0.564-1.007-1.007-1.288
	c-0.441-0.28-4.916-3.115-11.201-7.096c-2.447-1.551-5.146-3.264-7.968-5.049c5.172-1.224,10.755-1.895,16.573-1.895
	c5.031,0,9.888,0.497,14.452,1.424c-0.731,2.184-1.449,4.321-2.129,6.348C404.719,15.604,402.82,21.273,402.357,22.654"/>
<path fill="#F58025" d="M346.251,32.467l-0.008-0.179c0-11.537,9.441-21.638,23.554-27.183c4.938,3.276,9.795,6.501,14.167,9.404
	c8.066,5.354,14.244,9.455,15.732,10.44c-0.251,0.047-0.516,0.09-0.782,0.136c-0.272,0.043-0.548,0.085-0.837,0.128
	c-0.285,0.038-0.583,0.076-0.89,0.11c-0.306,0.034-0.619,0.064-0.946,0.09c-0.265,0-0.562-0.026-0.88-0.068
	c-0.319-0.047-0.663-0.107-1.024-0.183c-0.356-0.077-0.735-0.162-1.117-0.255c-0.387-0.094-0.782-0.196-1.182-0.293
	c-0.403-0.102-0.812-0.2-1.211-0.293c-0.399-0.094-0.799-0.183-1.186-0.26c-0.387-0.076-0.765-0.14-1.122-0.182
	c-0.36-0.043-0.705-0.068-1.023-0.068l-0.238,0.004l-0.226,0.013l-0.212,0.025l-0.208,0.038c-0.625,0.132-7.183,1.526-16.909,3.595
	C363.113,28.884,355.005,30.605,346.251,32.467"/>
<path fill="#F58025" d="M394.828,64c-0.161,0-0.318-0.009-0.48-0.009c2.065-6.646,3.91-12.59,5.452-17.575
	c3.051-9.824,5.121-16.504,5.64-18.174c0.183,0.135,0.369,0.276,0.557,0.42c0.191,0.145,0.378,0.293,0.564,0.442
	c0.188,0.153,0.37,0.302,0.545,0.455c0.178,0.149,0.344,0.297,0.496,0.442c0.357,0.335,0.63,0.879,0.863,1.525
	c0.238,0.655,0.442,1.416,0.662,2.18c0.221,0.774,0.464,1.551,0.778,2.223c0.318,0.68,0.71,1.249,1.224,1.603
	c0.519,0.352,5.996,4.079,14.346,9.76c2.188,1.488,4.599,3.128,7.187,4.887C423.754,59.385,410.118,64,394.828,64"/>
<path fill="#F58025" d="M382.939,63.039c-17.517-2.877-31.237-11.958-35.39-23.457c11.325-2.49,21.94-4.827,30.668-6.748
	c12.222-2.69,20.929-4.606,22.973-5.052c-0.076,0.174-0.153,0.352-0.238,0.531c-0.081,0.178-0.166,0.361-0.251,0.54
	c-0.089,0.182-0.178,0.356-0.268,0.531c-0.094,0.174-0.183,0.34-0.28,0.497c-0.233,0.391-0.761,0.824-1.433,1.287
	c-0.676,0.468-1.496,0.961-2.312,1.466c-0.824,0.51-1.636,1.033-2.29,1.552c-0.658,0.519-1.156,1.036-1.334,1.529
	c-0.179,0.497-2.087,5.797-5.053,14.023C386.368,53.52,384.749,58.016,382.939,63.039"/>
<polyline fill="#4D5054" points="53.1,54.176 0,54.176 0,6.417 52.246,6.417 52.246,17.5 14.643,17.5 14.643,25.153 50.266,25.153 
	50.266,35.046 14.643,35.046 14.643,42.699 53.1,42.699 53.1,54.176 "/>
<path fill="#4D5054" d="M75.276,18.293v11.609h24.209c3.96,0,5.409-1.585,5.409-5.014v-1.585c0-4.22-2.107-5.01-6.726-5.01H75.276
	 M118.947,54.175h-14.643v-5.736c0-5.011-1.454-6.663-6.005-6.663H75.276v12.399H60.633V6.42h44.193
	c11.282,0,14.321,5.605,14.321,14.18v3.039c0,6.395-1.454,10.156-8.18,11.736v0.132c4.351,0.795,7.98,2.707,7.98,10.555V54.175"/>
<rect x="127.2" y="6.419" fill="#4D5054" width="14.643" height="47.763"/>
<path fill="#4D5054" d="M194.821,54.703h-23.619c-13.194,0-21.042-3.294-21.042-17.282V23.172c0-13.984,7.848-17.282,21.042-17.282
	h17.219c20.843,0,23.55,4.483,23.418,18.009h-14.643v-1.322c0-3.429-2.511-4.419-6.863-4.419h-15.965
	c-7.717,0-9.166,3.629-9.166,9.565v5.146c0,6.927,1.449,9.565,8.376,9.565h15.633c6.6,0,8.58-0.658,8.58-6.595h14.643v4.483
	C212.434,48.371,209.532,54.703,194.821,54.703"/>
<polyline fill="#4D5054" points="281.577,54.176 260.862,54.176 239.755,35.836 233.287,35.836 233.287,54.176 218.644,54.176 
	218.644,6.417 233.287,6.417 233.287,23.963 240.15,23.963 258.618,6.417 278.543,6.417 252.681,29.772 281.577,54.176 "/>
<path fill="#4D5054" d="M316.018,54.703h-17.74c-13.326,0-18.672-2.503-18.672-12.859v-3.302h14.647
	c0.063,5.078,2.107,5.478,6.327,5.478h17.945c3.102,0,6.268-0.331,6.268-4.023c0-4.161-1.717-4.42-20.584-4.42
	c-22.029,0-24.536-2.64-24.536-14.384c0-8.639,0.791-15.302,19.263-15.302h20.448c16.888,0,18.473,5.741,18.473,14.117v1.517
	h-14.648c0-3.493-0.396-4.947-7.122-4.947h-16.228c-3.299,0-5.542,1.122-5.542,3.693c0,3.791,1.483,4.234,13.666,4.234
	c1.171,0,2.438-0.004,3.815-0.01c0.492-0.002,0.978-0.002,1.452-0.002c21.531,0,26.586,1.62,26.586,15.24
	C339.836,52.595,335.48,54.703,316.018,54.703"/>
<polyline fill="#4D5054" points="515.592,54.176 492.9,54.176 465.39,19.48 465.262,19.48 465.262,54.176 450.615,54.176 
	450.615,6.417 473.306,6.417 500.817,41.118 500.949,41.118 500.949,6.417 515.592,6.417 515.592,54.176 "/>
<polyline fill="#4D5054" points="521.588,6.133 520.347,6.133 520.347,2.406 519.319,2.406 519.319,1.357 522.617,1.357 
	522.617,2.406 521.588,2.406 521.588,6.133 "/>
<polyline fill="#4D5054" points="528.768,6.132 527.527,6.132 527.179,3.382 527.166,3.382 526.019,6.132 525.526,6.132 
	524.429,3.382 524.417,3.382 524.017,6.132 522.781,6.132 523.592,1.356 524.816,1.356 525.785,3.909 526.809,1.356 528.046,1.356 
	528.768,6.132 "/>
</svg>
