<svg version="1.1" id="Layer_1" xmlns="http://www.w3.org/2000/svg" x="0" y="0" width="529" height="64" viewBox="0 0 529 64" xml:space="preserve"><path fill="#F58025" d="M438.797 45.785c-4.568-2.962-8.783-5.694-12.502-8.108L408.078 25.86c.251-.043.51-.085.782-.132a35.882 35.882 0 0 1 1.704-.234c.298-.034.604-.064.913-.089.269 0 .565.025.893.068.323.047.676.11 1.046.187.369.076.76.166 1.164.259.404.094.816.2 1.232.302.416.098.842.2 1.258.297.416.094.829.183 1.231.259.404.077.795.141 1.169.183.37.047.723.073 1.051.073l.237-.005.233-.017.217-.025.204-.039c.608-.135 6.905-1.551 15.931-3.573 1.19-.272 2.439-.548 3.719-.837 1.517 3.072 2.35 6.348 2.35 9.752 0 4.827-1.662 9.4-4.615 13.496M406.5 23.092c.068-.17.14-.349.217-.527.076-.175.153-.353.234-.531.08-.179.165-.353.25-.519.085-.17.17-.331.26-.489.203-.348.692-.739 1.308-1.151.612-.412 1.353-.846 2.082-1.288.728-.437 1.441-.884 2.002-1.321.558-.438.96-.867 1.079-1.271.115-.404 1.279-4.5 2.895-10.156.152-.54.314-1.1.476-1.666 8.218 2.805 15.047 7.097 19.658 12.332-3.234.701-6.349 1.373-9.272 2.006-11.033 2.384-19.243 4.16-21.189 4.581m-4.143-.438c-.176-.132-.354-.264-.532-.4-.183-.136-.361-.276-.535-.412a12.232 12.232 0 0 1-.514-.416 10.512 10.512 0 0 1-.459-.408c-.327-.302-.565-.791-.762-1.368-.194-.578-.348-1.241-.518-1.896-.17-.654-.354-1.3-.608-1.852-.251-.553-.564-1.007-1.007-1.288l-11.201-7.096c-2.447-1.551-5.146-3.264-7.968-5.049 5.172-1.224 10.755-1.895 16.573-1.895 5.031 0 9.888.497 14.452 1.424-.731 2.184-1.449 4.321-2.129 6.348a55286.47 55286.47 0 0 1-4.792 14.308m-56.106 9.813l-.008-.179c0-11.537 9.441-21.638 23.554-27.183 4.938 3.276 9.795 6.501 14.167 9.404 8.066 5.354 14.244 9.455 15.732 10.44-.251.047-.516.09-.782.136-.272.043-.548.085-.837.128a30.237 30.237 0 0 1-1.836.2c-.265 0-.562-.026-.88-.068a17.031 17.031 0 0 1-1.024-.183 44.581 44.581 0 0 1-1.117-.255c-.387-.094-.782-.196-1.182-.293-.403-.102-.812-.2-1.211-.293a35.01 35.01 0 0 0-1.186-.26c-.387-.076-.765-.14-1.122-.182a8.732 8.732 0 0 0-1.023-.068l-.238.004-.226.013-.212.025-.208.038c-.625.132-7.183 1.526-16.909 3.595-6.59 1.398-14.698 3.119-23.452 4.981M394.828 64c-.161 0-.318-.009-.48-.009 2.065-6.646 3.91-12.59 5.452-17.575 3.051-9.824 5.121-16.504 5.64-18.174a38.844 38.844 0 0 1 1.121.862c.188.153.37.302.545.455.178.149.344.297.496.442.357.335.63.879.863 1.525.238.655.442 1.416.662 2.18.221.774.464 1.551.778 2.223.318.68.71 1.249 1.224 1.603l14.346 9.76 7.187 4.887C423.754 59.385 410.118 64 394.828 64m-11.889-.961c-17.517-2.877-31.237-11.958-35.39-23.457 11.325-2.49 21.94-4.827 30.668-6.748 12.222-2.69 20.929-4.606 22.973-5.052-.076.174-.153.352-.238.531-.081.178-.166.361-.251.54a29.14 29.14 0 0 1-.268.531c-.094.174-.183.34-.28.497-.233.391-.761.824-1.433 1.287-.676.468-1.496.961-2.312 1.466-.824.51-1.636 1.033-2.29 1.552-.658.519-1.156 1.036-1.334 1.529-.179.497-2.087 5.797-5.053 14.023l-4.792 13.301"/><path fill="#4D5054" d="M53.1 54.176H0V6.417h52.246V17.5H14.643v7.653h35.623v9.893H14.643v7.653H53.1v11.477m22.176-35.883v11.609h24.209c3.96 0 5.409-1.585 5.409-5.014v-1.585c0-4.22-2.107-5.01-6.726-5.01H75.276m43.671 35.882h-14.643v-5.736c0-5.011-1.454-6.663-6.005-6.663H75.276v12.399H60.633V6.42h44.193c11.282 0 14.321 5.605 14.321 14.18v3.039c0 6.395-1.454 10.156-8.18 11.736v.132c4.351.795 7.98 2.707 7.98 10.555v8.113M127.2 6.419h14.643v47.763H127.2zm67.621 48.284h-23.619c-13.194 0-21.042-3.294-21.042-17.282V23.172c0-13.984 7.848-17.282 21.042-17.282h17.219c20.843 0 23.55 4.483 23.418 18.009h-14.643v-1.322c0-3.429-2.511-4.419-6.863-4.419h-15.965c-7.717 0-9.166 3.629-9.166 9.565v5.146c0 6.927 1.449 9.565 8.376 9.565h15.633c6.6 0 8.58-.658 8.58-6.595h14.643v4.483c0 8.049-2.902 14.381-17.613 14.381m86.756-.527h-20.715l-21.107-18.34h-6.468v18.34h-14.643V6.417h14.643v17.546h6.863l18.468-17.546h19.925l-25.862 23.355 28.896 24.404"/><path fill="#4D5054" d="M316.018 54.703h-17.74c-13.326 0-18.672-2.503-18.672-12.859v-3.302h14.647c.063 5.078 2.107 5.478 6.327 5.478h17.945c3.102 0 6.268-.331 6.268-4.023 0-4.161-1.717-4.42-20.584-4.42-22.029 0-24.536-2.64-24.536-14.384 0-8.639.791-15.302 19.263-15.302h20.448c16.888 0 18.473 5.741 18.473 14.117v1.517h-14.648c0-3.493-.396-4.947-7.122-4.947h-16.228c-3.299 0-5.542 1.122-5.542 3.693 0 3.791 1.483 4.234 13.666 4.234 1.171 0 2.438-.004 3.815-.01.492-.002.978-.002 1.452-.002 21.531 0 26.586 1.62 26.586 15.24 0 12.862-4.356 14.97-23.818 14.97m199.574-.527H492.9L465.39 19.48h-.128v34.696h-14.647V6.417h22.691l27.511 34.701h.132V6.417h14.643v47.759m5.996-48.043h-1.241V2.406h-1.028V1.357h3.298v1.049h-1.029v3.727m7.18-.001h-1.241l-.348-2.75h-.013l-1.147 2.75h-.493l-1.097-2.75h-.012l-.4 2.75h-1.236l.811-4.776h1.224l.969 2.553 1.024-2.553h1.237l.722 4.776"/></svg>