<svg width="218" height="26" viewBox="0 0 218 26" version="1.1" xmlns="http://www.w3.org/2000/svg" xmlns:xlink="http://www.w3.org/1999/xlink"><defs><path id="path-1" d="M0 .76h21.81v18.965H0z"/><path id="path-3" d="M0 25.186h217.346V0H0z"/></defs><g id="Header" stroke="none" stroke-width="1" fill="none" fill-rule="evenodd"><g id="Group-26"><path d="M179.632 9.054c-3.707.804-6.291 1.364-6.543 1.42l-.082.014-.09.01-.097.006-.097.002c-.134 0-.279-.01-.43-.029a6.915 6.915 0 0 1-.48-.072 15.21 15.21 0 0 1-.507-.103c-.171-.04-.345-.08-.516-.118-.172-.04-.341-.083-.507-.12a22.033 22.033 0 0 0-.478-.102 6.79 6.79 0 0 0-.43-.075 3.146 3.146 0 0 0-.366-.027c-.127.01-.253.022-.375.035-.124.013-.244.03-.36.044-.117.016-.23.033-.34.05l-.321.052c.64.4 3.435 2.155 7.482 4.693l5.136 3.219c1.213-1.626 1.894-3.441 1.894-5.359 0-1.351-.342-2.653-.964-3.872-.526.114-1.039.223-1.529.332" id="Fill-1" fill="#F48023"/><path d="M167.36 8.121a3.325 3.325 0 0 0-.108.196 3.65 3.65 0 0 0-.102.205c-.034.07-.065.14-.097.21a7.496 7.496 0 0 0-.088.21c.798-.168 4.171-.872 8.702-1.82l3.808-.796c-1.892-2.078-4.698-3.783-8.073-4.896a65.76 65.76 0 0 0-.196.661c-.664 2.246-1.14 3.873-1.189 4.033-.048.16-.214.33-.443.504a8.55 8.55 0 0 1-.823.525c-.298.176-.604.347-.855.51-.253.165-.453.32-.536.458" id="Fill-3" fill="#F48023"/><path d="M163.237 5.575c.18.112.31.292.413.511.105.22.179.476.25.737.07.259.132.522.212.751.08.23.179.425.312.544.06.054.123.108.189.163.068.054.137.11.212.164.071.054.144.11.22.165l.218.158 1.969-5.681c.278-.806.573-1.654.874-2.522A30.857 30.857 0 0 0 162.17 0c-2.39 0-4.682.267-6.808.752 1.159.709 2.267 1.39 3.273 2.005l4.602 2.818" id="Fill-5" fill="#F48023"/><path d="M158.796 9.26l.085-.016.088-.01.092-.006h.098c.13 0 .271.009.42.026.146.017.303.042.46.072a18.047 18.047 0 0 1 .984.22c.166.039.328.08.485.116.158.038.313.071.461.102.147.03.289.054.421.072.13.016.252.027.36.027.135-.01.265-.021.39-.035.125-.013.248-.03.365-.044l.343-.051c.11-.018.218-.035.323-.054-.611-.39-3.15-2.02-6.463-4.146-1.796-1.152-3.79-2.433-5.82-3.734-5.796 2.203-9.673 6.213-9.673 10.794l.002.07 9.634-1.976c3.995-.823 6.688-1.376 6.945-1.428" id="Fill-7" fill="#F48023"/><path d="M168.865 14.674c-.21-.14-.371-.365-.502-.635a5.93 5.93 0 0 1-.32-.883c-.09-.304-.174-.606-.272-.866-.095-.255-.207-.472-.354-.604a3.45 3.45 0 0 0-.204-.176c-.071-.061-.146-.12-.224-.182a8.234 8.234 0 0 0-.233-.175 10.955 10.955 0 0 0-.227-.167c-.213.663-1.063 3.317-2.318 7.217-.631 1.98-1.39 4.34-2.238 6.98.067 0 .131.003.197.003 6.28 0 11.881-1.832 15.539-4.695-1.062-.697-2.052-1.35-2.95-1.94l-5.894-3.877" id="Fill-9" fill="#F48023"/><path d="M163.77 12.149c.275-.184.492-.357.588-.511.04-.063.077-.13.114-.198l.112-.21.102-.215c.034-.071.065-.142.096-.21-.837.176-4.414.937-9.435 2.005l-12.595 2.68c1.705 4.567 7.34 8.17 14.535 9.314.743-1.994 1.409-3.78 1.97-5.281l2.075-5.57c.072-.195.277-.4.547-.606.27-.206.602-.413.94-.616.335-.201.673-.396.95-.582" id="Fill-11" fill="#F48023"/><g id="Group-15" transform="translate(0 1.56)"><mask id="mask-2" fill="#fff"><use xlink:href="#path-1"/></mask><path id="Fill-13" fill="#4E5154" mask="url(#mask-2)" d="M6.014 12.128h14.632v-3.93H6.014V5.162H21.46V.76H-.001v18.964h21.81v-4.558H6.015z"/></g><path d="M43.084 9.654c0 1.363-.596 1.991-2.222 1.991h-9.943V7.036h9.403c1.895 0 2.762.314 2.762 1.989v.63zm-.027-7.333H24.904v18.963h6.015v-4.923h9.457c1.87 0 2.465.655 2.465 2.646v2.277h6.015v-3.221c0-3.116-1.492-3.876-3.279-4.192v-.052c2.765-.627 3.36-2.121 3.36-4.66V7.952c0-3.405-1.247-5.631-5.88-5.631z" id="Fill-16" fill="#4E5154"/><mask id="mask-4" fill="#fff"><use xlink:href="#path-3"/></mask><path id="Fill-18" fill="#4E5154" mask="url(#mask-4)" d="M52.246 21.287h6.015V2.321h-6.015z"/><path d="M77.715 16.622h-6.42c-2.845 0-3.441-1.048-3.441-3.798v-2.043c0-2.358.596-3.799 3.766-3.799h6.557c1.787 0 2.819.393 2.819 1.755v.525h6.015c.053-5.37-1.058-7.15-9.62-7.15h-7.073c-5.418 0-8.642 1.31-8.642 6.861v5.659c0 5.555 3.224 6.863 8.642 6.863h9.702c6.041 0 7.234-2.515 7.234-5.711v-1.78H81.24c0 2.358-.813 2.618-3.525 2.618" id="Fill-20" fill="#4E5154" mask="url(#mask-4)"/><path id="Fill-21" fill="#4E5154" mask="url(#mask-4)" d="M114.407 2.32h-8.183l-7.587 6.967H95.82V2.32h-6.014v18.965h6.014v-7.283h2.657l8.669 7.283h8.508l-11.868-9.69z"/><path d="M128.663 9.498h-.596c-.566.003-1.087.004-1.567.004-5.005 0-5.614-.175-5.614-1.68 0-1.022.922-1.468 2.277-1.468h6.664c2.765 0 2.927.578 2.927 1.966h6.016v-.603c0-3.327-.65-5.606-7.586-5.606h-8.4c-7.587 0-7.912 2.645-7.912 6.076 0 4.664 1.03 5.712 10.078 5.712 7.749 0 8.456.102 8.456 1.755 0 1.466-1.302 1.598-2.576 1.598h-7.37c-1.734 0-2.574-.158-2.6-2.176h-6.015v1.313c0 4.111 2.195 5.105 7.667 5.105h7.29c7.991 0 9.782-.837 9.782-5.945 0-5.408-2.077-6.051-10.92-6.051" id="Fill-22" fill="#4E5154" mask="url(#mask-4)"/><path id="Fill-23" fill="#4E5154" mask="url(#mask-4)" d="M205.758 16.1h-.055L194.405 2.32h-9.32v18.965h6.015V7.508h.052l11.3 13.777h9.32V2.32h-6.014z"/><path d="M215.716 3.559a.24.24 0 0 1-.25.246h-.472v-.492h.472c.15 0 .25.099.25.246m.504-.006c0-.458-.365-.699-.727-.699h-.834a.139.139 0 0 0-.14.14v1.853c0 .077.061.14.14.14h.208a.14.14 0 0 0 .138-.14v-.606h.298l.275.647c.02.047.07.099.13.099h.254c.05 0 .098-.027.123-.069a.126.126 0 0 0 .002-.129 57.523 57.523 0 0 0-.285-.598.65.65 0 0 0 .418-.638" id="Fill-24" fill="#4E5154" mask="url(#mask-4)"/><path d="M216.887 3.926a1.61 1.61 0 0 1-1.608 1.608 1.61 1.61 0 0 1-1.608-1.608 1.609 1.609 0 0 1 3.215 0M215.28 1.86a2.064 2.064 0 0 0 0 4.127c1.14 0 2.067-.925 2.067-2.06a2.07 2.07 0 0 0-2.067-2.067" id="Fill-25" fill="#4E5154" mask="url(#mask-4)"/></g></g></svg>