<svg height="45" viewBox="0 0 45 45" width="45" xmlns="http://www.w3.org/2000/svg"><g fill="#e9731f" transform=""><path d="m15.2064 16.3728c-.4771872 0-.864.3868992-.864.864v1.7856288c0 .4771008.3868128.864.864.864s.864-.3868992.864-.864v-1.7856288c0-.4771008-.3868128-.864-.864-.864z"/><path d="m18.6624 16.3728c-.4771872 0-.864.3868992-.864.864v1.7856288c0 .4771008.3868128.864.864.864s.864-.3868992.864-.864v-1.7856288c0-.4771008-.3868128-.864-.864-.864z"/><path d="m22.1184 16.3728c-.4771872 0-.864.3868992-.864.864v1.7856288c0 .4771008.3868128.864.864.864s.864-.3868992.864-.864v-1.7856288c0-.4771008-.3868128-.864-.864-.864z"/><path d="m25.5744 16.3728c-.4771872 0-.864.3868992-.864.864v1.7856288c0 .4771008.3868128.864.864.864s.864-.3868992.864-.864v-1.7856288c0-.4771008-.3868128-.864-.864-.864z"/><path d="m29.0304 16.3728c-.4771872 0-.864.3868992-.864.864v1.7856288c0 .4771008.3868128.864.864.864s.864-.3868992.864-.864v-1.7856288c0-.4771008-.3868128-.864-.864-.864z"/><path d="m10.0224 39.0671424c-.227232 0-.450144.092448-.610848.2532384-.160704.1606176-.253152.3835296-.253152.6107616 0 .2273184.092448.450144.253152.610848s.383616.253152.610848.253152.450144-.0923616.610848-.253152.253152-.3835296.253152-.610848c0-.227232-.092448-.450144-.253152-.6107616-.160704-.1607904-.383616-.2532384-.610848-.2532384z"/><path d="m10.0224 31.9248c-.4771872 0-.864.3868992-.864.864v3.7425024c0 .4771008.3868128.864.864.864s.864-.3868992.864-.864v-3.7425024c0-.4771008-.3868128-.864-.864-.864z"/><path d="m14.8608 31.9248c-.4771872 0-.864.3868992-.864.864v7.1424288c0 .4771008.3868128.864.864.864s.864-.3868992.864-.864v-7.1424288c0-.4771008-.3868128-.864-.864-.864z"/><path d="m19.6992 31.9248c-.4771872 0-.864.3868992-.864.864v7.1424288c0 .4771008.3868128.864.864.864s.864-.3868992.864-.864v-7.1424288c0-.4771008-.3868128-.864-.864-.864z"/><path d="m24.5376 31.9248c-.4771872 0-.864.3868992-.864.864v7.1424288c0 .4771008.3868128.864.864.864s.864-.3868992.864-.864v-7.1424288c0-.4771008-.3868128-.864-.864-.864z"/><path d="m29.376 31.9248c-.4771872 0-.864.3868992-.864.864v7.1424288c0 .4771008.3868128.864.864.864s.864-.3868992.864-.864v-7.1424288c0-.4771008-.3868128-.864-.864-.864z"/><path d="m34.2144 31.9244544c-.227232 0-.450144.092448-.610848.2532384-.160704.161568-.253152.3835296-.253152.6107616 0 .2281824.092448.450144.253152.610848.160704.161568.383616.253152.610848.253152s.450144-.091584.610848-.253152c.160704-.160704.253152-.382752.253152-.610848 0-.227232-.092448-.4491936-.253152-.6107616-.160704-.1607904-.383616-.2532384-.610848-.2532384z"/><path d="m34.2144 35.3808c-.4771872 0-.864.3868992-.864.864v3.6864288c0 .4771008.3868128.864.864.864s.864-.3868992.864-.864v-3.6864288c0-.4771008-.3868128-.864-.864-.864z"/><path d="m13.4784 23.5872c-.4771872 0-.864.3868992-.864.864v1.7856288c0 .4771008.3868128.864.864.864s.864-.3868992.864-.864v-1.7856288c0-.4771008-.3868128-.864-.864-.864z"/><path d="m16.9344 23.5872c-.4771872 0-.864.3868992-.864.864v1.7856288c0 .4771008.3868128.864.864.864s.864-.3868992.864-.864v-1.7856288c0-.4771008-.3868128-.864-.864-.864z"/><path d="m20.3904 23.5872c-.4771872 0-.864.3868992-.864.864v1.7856288c0 .4771008.3868128.864.864.864s.864-.3868992.864-.864v-1.7856288c0-.4771008-.3868128-.864-.864-.864z"/><path d="m23.8464 23.5872c-.4771872 0-.864.3868992-.864.864v1.7856288c0 .4771008.3868128.864.864.864s.864-.3868992.864-.864v-1.7856288c0-.4771008-.3868128-.864-.864-.864z"/><path d="m27.3024 23.5872c-.4771872 0-.864.3868992-.864.864v1.7856288c0 .4771008.3868128.864.864.864s.864-.3868992.864-.864v-1.7856288c0-.4771008-.3868128-.864-.864-.864z"/><path d="m30.7584 23.5872c-.4771872 0-.864.3868992-.864.864v1.7856288c0 .4771008.3868128.864.864.864s.864-.3868992.864-.864v-1.7856288c0-.4771008-.3868128-.864-.864-.864z"/><path d="m43.3728 30.7439712h-3.456v-1.9008c0-.4771008-.3868128-.864-.864-.864h-3.9744v-5.8752h.6048c.4771872 0 .864-.3868992.864-.864s-.3868128-.864-.864-.864h-2.4192v-4.4972064c.4365792-.0433728.7776-.411696.7776-.8595936 0-.4771008-.3868128-.864-.864-.864h-.7776-1.3536288v-.7487424c0-4.631472-3.544992-8.4500928-8.0639712-8.8861536v-3.6418464c0-.4771008-.3868128-.864-.864-.864s-.864.3868992-.864.864v3.6418464c-4.5190656.4360608-8.0639712 4.2546816-8.0639712 8.8861536v.7487424h-1.3536288-.7776c-.4771872 0-.864.3868992-.864.864 0 .447984.3410208.8163072.7776.8595936v4.4972064h-2.4192c-.4771872 0-.864.3868992-.864.864s.3868128.864.864.864h.6048v5.8752h-3.9744c-.4771872 0-.864.3868992-.864.864v1.9008h-3.456c-.4771872 0-.864.3868992-.864.864v11.7504c0 .4771008.3868128.864.864.864h42.5088c.4771872 0 .864-.3868992.864-.864v-11.7504c0-.4771008-.3868128-.864-.864-.864zm-28.4543712-17.3375424c0-3.97008 3.2298912-7.2000576 7.1999712-7.2000576s7.1999712 3.2299776 7.1999712 7.2000576v.7487424h-14.3999424zm-2.2176288 2.4767424h1.3536288 16.1280288 1.3535424v4.4928h-18.8352zm-1.8144 6.2208h22.464v5.8752h-22.464zm-9.1584 10.368h2.592v10.0224h-2.592zm4.32-.864v-1.9008h32.1408v1.9008 10.8864h-32.1408zm36.4608 10.8864h-2.592v-10.0224h2.592z"/></g></svg>