<svg width="77" height="77" viewBox="0 0 77 77" version="1.1" xmlns="http://www.w3.org/2000/svg"><g id="Mockups" stroke="none" stroke-width="1" fill="none" fill-rule="evenodd"><g id="Career-Index" transform="translate(-683 -896)" fill="#E9731F" fill-rule="nonzero" stroke="#FFF" stroke-width=".7"><g id="005-helicopter-2" transform="translate(684 897)"><path d="M64.349.022c-6.02 0-10.916 4.896-10.916 10.915 0 .409.025.812.069 1.209H41.963c-1 0-1.972-.356-2.735-1l-.033-.029a7.369 7.369 0 0 0-4.75-1.74h-7.702V6.962h21.44a1.56 1.56 0 0 0 0-3.119h-46a1.56 1.56 0 0 0 0 3.119h21.44v2.417h-4.069A13.201 13.201 0 0 0 6.455 20.716c-.089.196-.14 2.072-.14 2.072a6.869 6.869 0 0 0 6.861 6.861h3.353v3.041H6.268a3.153 3.153 0 0 1-3.15-3.149v-.048a1.56 1.56 0 0 0-3.118 0v.048a6.275 6.275 0 0 0 6.268 6.268h17.356v12.506L4.15 59.475a1.555 1.555 0 0 0-.931 1.766l.026.125a17.24 17.24 0 0 0 6 9.762 17.239 17.239 0 0 0 10.803 3.82h10.269a17.24 17.24 0 0 0 10.802-3.82 17.24 17.24 0 0 0 6-9.762l.027-.125a1.56 1.56 0 0 0-.931-1.766l-19.474-11.16V35.81h13.956a1.56 1.56 0 0 0 0-3.119H31.81v-3.04h2.729a6.869 6.869 0 0 0 6.861-6.862v-1.286h20.2c.879.228 1.8.35 2.748.35 6.019 0 10.916-4.896 10.916-10.915C75.264 4.92 70.367.022 64.349.022zM19.554 12.497h.016v5.106a2.198 2.198 0 0 1-2.196 2.196H9.83a10.094 10.094 0 0 1 9.724-7.302zm10.764 59.332H20.049c-5.971 0-11.282-3.84-13.252-9.356H43.57c-1.97 5.516-7.281 9.356-13.252 9.356zm9.416-12.474H10.633l14.55-8.339 14.551 8.339zM28.692 32.69h-9.044v-3.04h9.044v3.04zM39.84 18.383a1.56 1.56 0 0 0-1.56 1.56v2.845a3.747 3.747 0 0 1-3.742 3.743H13.176a3.747 3.747 0 0 1-3.74-3.613h7.938a5.32 5.32 0 0 0 5.314-5.314v-5.107h11.756c1 0 1.973.356 2.735 1l.034.028a7.369 7.369 0 0 0 4.75 1.74H54.33a10.945 10.945 0 0 0 2.048 3.118H39.84h0zm24.508.351c-4.3 0-7.797-3.498-7.797-7.797 0-4.299 3.498-7.796 7.797-7.796 4.299 0 7.796 3.497 7.796 7.796 0 4.3-3.497 7.797-7.796 7.797z" id="Shape"/><path d="M64.349 6.26a4.683 4.683 0 0 0-4.678 4.677 4.683 4.683 0 0 0 4.678 4.678 4.683 4.683 0 0 0 4.678-4.678 4.683 4.683 0 0 0-4.678-4.678zm0 6.237c-.86 0-1.56-.7-1.56-1.56 0-.86.7-1.56 1.56-1.56a1.561 1.561 0 0 1-.001 3.12z" id="Shape"/><path d="M33.643 18.266h-.312a1.56 1.56 0 0 0 0 3.119h.312a1.56 1.56 0 0 0 0-3.119z" id="Path"/></g></g></g></svg>