<svg width="71" height="64" viewBox="0 0 71 64" version="1.1" xmlns="http://www.w3.org/2000/svg"><g id="Mockups" stroke="none" stroke-width="1" fill="none" fill-rule="evenodd"><g id="Career-Index" transform="translate(-257 -906)" fill="#E9731F" fill-rule="nonzero"><g id="bank" transform="translate(257 906)"><path d="M67.233 54.514c-.205-8.76-3.24-17.33-8.81-24.844-4.267-5.756-9.874-10.528-15.797-13.525a1.123 1.123 0 0 0-.933-1.75h-1.527l6.099-12.748A1.124 1.124 0 0 0 45.25.04H25.155a1.123 1.123 0 0 0-1.013 1.608l6.098 12.748h-1.527a1.124 1.124 0 0 0-.933 1.75c-5.923 2.997-11.53 7.769-15.797 13.525-5.57 7.514-8.605 16.084-8.81 24.844A4.407 4.407 0 0 0 0 58.754a4.427 4.427 0 0 0 4.422 4.422h61.562a4.427 4.427 0 0 0 4.422-4.422 4.407 4.407 0 0 0-3.173-4.24zm-1.25 6.415H4.424c-1.2 0-2.176-.975-2.176-2.175 0-1.161.905-2.11 2.063-2.168h2.971a1.124 1.124 0 0 0 0-2.247H5.427c.536-18.246 14.026-32.938 26.8-37.697h5.952c12.774 4.76 26.264 19.451 26.8 37.697h-1.854a1.123 1.123 0 1 0 0 2.247h2.97a2.167 2.167 0 0 1 2.064 2.168c0 1.2-.976 2.175-2.175 2.175zM31.996 5.282c.62 0 1.124-.503 1.124-1.123V2.286h10.35l-5.793 12.11H32.73l-5.792-12.11h3.934V4.16c0 .62.503 1.123 1.123 1.123z" id="Shape"/><path d="M58.631 54.339h-8.988a1.123 1.123 0 1 0 0 2.247h8.988a1.123 1.123 0 1 0 0-2.247z" id="Path"/><path d="M41.151 30.936a1.123 1.123 0 1 0 2.247 0c0-3.38-2.797-5.735-7.072-6.085v-1.794a1.124 1.124 0 0 0-2.247 0v1.794c-4.274.35-7.071 2.705-7.071 6.085 0 4.386 3.708 5.371 7.071 5.954v7.88c-2.424-.25-4.824-1.345-4.824-3.826a1.124 1.124 0 0 0-2.247 0c0 3.379 2.797 5.735 7.071 6.085v1.794a1.124 1.124 0 0 0 2.247 0v-1.794c4.275-.35 7.072-2.706 7.072-6.085 0-4.388-3.708-5.374-7.072-5.957v-7.878c2.425.25 4.825 1.345 4.825 3.827zm-11.896 0c0-2.482 2.4-3.577 4.824-3.827v7.493c-3.271-.613-4.824-1.35-4.824-3.666zM41.15 40.944c0 2.481-2.4 3.576-4.825 3.826v-7.496c3.272.614 4.825 1.351 4.825 3.67z" id="Shape"/></g></g></g></svg>