<svg width="70" height="70" viewBox="0 0 70 70" version="1.1" xmlns="http://www.w3.org/2000/svg"><g id="Mockups" stroke="none" stroke-width="1" fill="none" fill-rule="evenodd"><g id="Career-Index" transform="translate(-1082 -907)" fill="#E9731F" fill-rule="nonzero"><g id="drone" transform="translate(1082 907)"><path d="M34.72 0C15.575 0 0 15.575 0 34.72s15.575 34.72 34.72 34.72 34.72-15.575 34.72-34.72S53.865 0 34.72 0zm0 67.2c-17.909 0-32.48-14.571-32.48-32.48S16.811 2.24 34.72 2.24 67.2 16.811 67.2 34.72 52.629 67.2 34.72 67.2z" id="Shape"/><path d="M57.833 18.919a5.838 5.838 0 0 0 .407-2.126 5.87 5.87 0 0 0-.616-2.61l-.932-1.863h-3.81a9.448 9.448 0 0 0-6.88 2.988l-13.22 14.167.008.008c-2.136.792-3.67 2.83-3.67 5.237 0 .186.037.36.055.542l-10.091 8.2A17.875 17.875 0 0 1 16.8 34.72c0-7.011 4.137-13.416 10.541-16.316l-.922-2.04C19.215 19.623 14.56 26.83 14.56 34.72c0 3.593.961 7.092 2.765 10.17l-3.967 3.224a5.867 5.867 0 0 0-.4.363A25.592 25.592 0 0 1 8.96 34.72c0-12.628 9.028-23.31 21.466-25.397l-.372-2.21C16.534 9.383 6.72 20.993 6.72 34.72a27.838 27.838 0 0 0 4.887 15.801 5.838 5.838 0 0 0-.407 2.126c0 .901.213 1.803.616 2.61l.932 1.863h3.81a9.448 9.448 0 0 0 6.88-2.988L36.66 39.965l-.01-.008c2.136-.792 3.67-2.83 3.67-5.237 0-.186-.037-.36-.055-.542l10.091-8.2a17.875 17.875 0 0 1 2.284 8.742c0 4.773-1.865 9.264-5.25 12.648l1.583 1.584c3.81-3.806 5.907-8.86 5.907-14.232a20.09 20.09 0 0 0-2.765-10.17l3.967-3.224c.14-.114.27-.238.4-.363A25.592 25.592 0 0 1 60.48 34.72c0 14.205-11.555 25.76-25.76 25.76v2.24c15.44 0 28-12.56 28-28a27.838 27.838 0 0 0-4.887-15.801zM21.8 52.603a7.192 7.192 0 0 1-5.24 2.277h-2.427l-.312-.624a3.617 3.617 0 0 1-.38-1.61 3.58 3.58 0 0 1 1.33-2.793l15.145-12.305a5.593 5.593 0 0 0 3.505 2.604L21.799 52.603zM34.72 38.08a3.364 3.364 0 0 1-3.36-3.36 3.364 3.364 0 0 1 3.36-3.36 3.364 3.364 0 0 1 3.36 3.36 3.364 3.364 0 0 1-3.36 3.36zm19.95-18.493L39.525 31.892a5.593 5.593 0 0 0-3.505-2.604l11.62-12.451a7.192 7.192 0 0 1 5.24-2.277h2.427l.312.624c.249.497.38 1.054.38 1.61a3.58 3.58 0 0 1-1.33 2.793z" id="Shape"/><path d="M44.84 49.477c-.9.618-1.823 1.144-2.743 1.56l.926 2.04a20.256 20.256 0 0 0 3.086-1.753l-1.269-1.847zM34.72 8.96V6.72c-.721 0-1.484.034-2.333.105l.186 2.232a25.505 25.505 0 0 1 2.147-.097z" id="Path"/></g></g></g></svg>