<svg width="48" height="74" viewBox="0 0 48 74" version="1.1" xmlns="http://www.w3.org/2000/svg"><g id="Mockups" stroke="none" stroke-width="1" fill="none" fill-rule="evenodd"><g id="Career-Index" transform="translate(-893 -905)" fill="#E9731F" fill-rule="nonzero" stroke="#FFF" stroke-width=".7"><g id="Group-4" transform="translate(892 906)"><g id="file" transform="matrix(-1 0 0 1 48.6 0)"><path d="M47.185 14.021c0-.015 0-.03-.002-.046-.004-.06-.01-.12-.022-.179 0 0 0 0 0 0a1.47 1.47 0 0 0-.133-.376l-.004-.008a1.373 1.373 0 0 0-.097-.155l-.028-.037a1.413 1.413 0 0 0-.121-.14L34.109.41a1.413 1.413 0 0 0-.141-.121c-.013-.01-.025-.02-.038-.028-.05-.036-.1-.069-.153-.096l-.01-.006a1.466 1.466 0 0 0-.375-.132s0 0 0 0a1.484 1.484 0 0 0-.18-.023l-.045-.002L33.119 0H1.4A1.4 1.4 0 0 0 0 1.4v59.923a1.4 1.4 0 0 0 1.4 1.4h21.078v7.557a1.4 1.4 0 0 0 2.144 1.186l5.332-3.345 5.332 3.345a1.402 1.402 0 0 0 2.144-1.186v-7.557h8.358a1.4 1.4 0 0 0 1.4-1.4V14.07l-.003-.048h0zM34.52 4.781l7.889 7.888H34.52V4.78zm-12.733 38.46c-.098-.267-.259-.704-.263-.883.11-.136.49-.376.722-.523.499-.315 1.064-.672 1.474-1.231.414-.565.583-1.217.731-1.793.065-.251.17-.658.26-.811.05-.01.153-.025.347-.025.156 0 .33.008.515.018.212.01.43.02.66.02.504 0 .91-.056 1.28-.179.644-.214 1.16-.63 1.615-.996.252-.202.673-.541.82-.562.16.02.58.36.832.562.455.367.971.782 1.616.996.369.123.775.18 1.28.18.228 0 .447-.011.659-.021.185-.01.36-.018.516-.018.194 0 .297.014.346.025.09.153.195.56.26.811.148.576.317 1.228.731 1.793.41.559.975.916 1.475 1.231.232.148.611.387.72.523-.003.179-.164.616-.261.883-.209.567-.444 1.21-.444 1.923 0 .712.235 1.355.443 1.923.098.268.259.704.263.883-.11.136-.49.375-.721.523-.5.315-1.065.672-1.475 1.231-.414.565-.583 1.218-.731 1.793-.065.25-.17.658-.26.811-.05.01-.152.026-.346.026-.157 0-.331-.01-.516-.019-.212-.01-.43-.02-.659-.02-.505 0-.911.056-1.28.18-.645.213-1.161.63-1.616.995-.248.2-.661.532-.826.562-.165-.03-.578-.362-.825-.562-.456-.366-.972-.782-1.616-.996-.37-.123-.776-.18-1.28-.18-.229 0-.448.011-.66.021-.184.01-.359.019-.515.019-.194 0-.297-.015-.347-.026-.09-.153-.195-.56-.26-.811-.148-.575-.317-1.228-.73-1.793-.41-.559-.976-.916-1.475-1.231-.232-.147-.612-.387-.721-.523.004-.178.164-.615.262-.883.208-.567.444-1.21.444-1.923 0-.713-.236-1.356-.444-1.923h0zM34.63 67.749l-3.932-2.467a1.403 1.403 0 0 0-1.488 0l-3.932 2.467V55.15c.148-.004.294-.01.436-.017.185-.01.36-.018.519-.018.248 0 .354.023.395.036.167.056.487.314.745.521.653.527 1.466 1.181 2.581 1.181s1.928-.654 2.581-1.18c.258-.208.578-.466.745-.521.041-.014.147-.037.395-.037.159 0 .334.009.519.018.142.007.288.013.436.017v12.6h0zm2.8-7.826v-5.901c.416-.566.59-1.235.737-1.804.078-.298.183-.707.28-.837.095-.132.451-.356.71-.52.69-.436 1.547-.978 1.888-2.003.337-1.01-.014-1.966-.295-2.734-.128-.348-.273-.744-.273-.96 0-.215.145-.61.273-.958.281-.768.632-1.724.295-2.735-.34-1.024-1.198-1.566-1.887-2.001-.26-.164-.616-.39-.712-.52-.096-.131-.201-.54-.279-.838-.2-.78-.451-1.75-1.309-2.379-.682-.5-1.472-.557-2.008-.557-.226 0-.445.01-.656.021-.185.01-.36.018-.518.018-.249 0-.355-.023-.396-.036-.166-.055-.487-.314-.744-.521-.654-.526-1.467-1.18-2.582-1.18-1.114 0-1.928.654-2.581 1.18-.258.207-.578.466-.745.52-.04.015-.147.037-.395.037a9.91 9.91 0 0 1-.519-.018c-.211-.01-.43-.021-.656-.021-.535 0-1.325.058-2.007.557-.858.63-1.11 1.6-1.31 2.379-.078.298-.183.707-.279.838-.096.13-.452.356-.712.52-.689.435-1.546.977-1.887 2.001-.337 1.012.013 1.967.295 2.735.128.348.273.743.273.959 0 .215-.145.61-.273.959-.282.768-.632 1.723-.295 2.735.341 1.024 1.199 1.566 1.887 2.001.26.165.616.39.712.52.096.131.201.54.278.838.148.57.322 1.239.738 1.804v5.901H2.8V2.8h28.92v11.269a1.4 1.4 0 0 0 1.4 1.4h11.268v44.454H37.43z" id="Shape"/></g></g></g></g></svg>