<svg width="67" height="64" viewBox="0 0 67 64" version="1.1" xmlns="http://www.w3.org/2000/svg"><g id="Mockups" stroke="none" stroke-width="1" fill="none" fill-rule="evenodd"><g id="Career-Index" transform="translate(-471 -906)" fill="#E9731F" fill-rule="nonzero"><g id="medical-insurance" transform="translate(471 906)"><path d="M1.166 34.453a1.17 1.17 0 0 0 1.282-.863c.226-.856 1.024-3.298 2.018-4.378a7.067 7.067 0 0 1 4.88-1.976 6.934 6.934 0 0 1 4.87 1.965c1.3 1.388 1.99 3.08 1.99 4.894a1.17 1.17 0 0 0 2.34 0 6.754 6.754 0 0 1 6.859-6.859 6.933 6.933 0 0 1 4.87 1.965c1.3 1.389 1.988 3.081 1.988 4.895v24.1a3.29 3.29 0 1 1-6.58 0 1.17 1.17 0 0 0-2.34 0 5.631 5.631 0 1 0 11.261 0v-24.1a6.752 6.752 0 0 1 6.859-6.858 6.932 6.932 0 0 1 4.87 1.964c1.301 1.388 1.99 3.08 1.99 4.894a1.17 1.17 0 0 0 2.34 0 6.755 6.755 0 0 1 6.86-6.858A6.931 6.931 0 0 1 62.39 29.2c.995 1.068 1.801 3.53 2.028 4.39a1.171 1.171 0 0 0 2.303-.297A33.297 33.297 0 0 0 9.89 9.749 33.075 33.075 0 0 0 .146 33.292a1.17 1.17 0 0 0 1.02 1.161zm10.38-23.049a30.959 30.959 0 0 1 52.263 15.914 9.317 9.317 0 0 0-6.287-2.422c-2.427 0-4.679.912-6.512 2.638a10.032 10.032 0 0 0-1.518 2.044 10.052 10.052 0 0 0-1.467-1.994l-.024-.026a9.289 9.289 0 0 0-6.538-2.662c-2.427 0-4.678.912-6.512 2.638a10.058 10.058 0 0 0-1.518 2.044 10.03 10.03 0 0 0-1.466-1.994l-.025-.026a9.289 9.289 0 0 0-6.538-2.662c-2.426 0-4.678.912-6.511 2.638a10.068 10.068 0 0 0-1.517 2.043 10.054 10.054 0 0 0-1.493-2.019 9.35 9.35 0 0 0-12.827-.228 30.716 30.716 0 0 1 8.49-15.926z" id="Shape"/><path d="M25.387 17.871h4.535v4.39c0 .646.524 1.17 1.17 1.17h4.682a1.17 1.17 0 0 0 1.17-1.17v-4.39h4.39a1.17 1.17 0 0 0 1.17-1.17v-4.828a1.17 1.17 0 0 0-1.17-1.17h-4.39v-4.39a1.17 1.17 0 0 0-1.17-1.17h-4.681a1.17 1.17 0 0 0-1.17 1.17v4.39h-4.536a1.17 1.17 0 0 0-1.17 1.17v4.828c0 .646.524 1.17 1.17 1.17zm1.17-4.827h4.536a1.17 1.17 0 0 0 1.17-1.17v-4.39h2.341v4.39c0 .646.524 1.17 1.17 1.17h4.39v2.487h-4.39a1.17 1.17 0 0 0-1.17 1.17v4.39h-2.34V16.7a1.17 1.17 0 0 0-1.171-1.17h-4.536v-2.487z" id="Shape"/></g></g></g></svg>