<svg width="44" height="52" viewBox="0 0 44 52" version="1.1" xmlns="http://www.w3.org/2000/svg"><g id="Mockups" stroke="none" stroke-width="1" fill="none" fill-rule="evenodd"><g id="Career-Index" transform="translate(-698 -2536)" fill="#E9731F" fill-rule="nonzero"><g id="search" transform="translate(698 2536)"><path d="M42.33 0H7.272a1.02 1.02 0 0 0-1.02 1.02v34.903L1.02 41.156a3.319 3.319 0 0 0 0 4.688 3.306 3.306 0 0 0 2.344.969 3.3 3.3 0 0 0 2.344-.97l.545-.544v4.881c0 .563.457 1.02 1.02 1.02h26.656c.27 0 .53-.108.721-.299l8.4-8.4a1.02 1.02 0 0 0 .299-.72V1.02A1.02 1.02 0 0 0 42.329 0zM4.265 44.401a1.276 1.276 0 0 1-1.803 0 1.276 1.276 0 0 1 0-1.803l9.772-9.772 1.803 1.803L4.266 44.4zm30.681 3.319l-.004-4.926 4.926.004-4.922 4.922zm6.362-6.96l-7.386-.007h-.001a1.02 1.02 0 0 0-1.02 1.02l.007 7.387H8.293v-5.9l7.909-7.909a1.02 1.02 0 0 0 0-1.442l-.933-.933 1.95-1.95a12.031 12.031 0 0 0 7.735 2.806c6.665 0 12.086-5.422 12.086-12.086 0-6.664-5.422-12.086-12.086-12.086-6.664 0-12.086 5.422-12.086 12.086 0 2.992 1.093 5.733 2.9 7.846l-1.942 1.941-.87-.87a1.02 1.02 0 0 0-1.442 0l-3.22 3.221V2.04h33.015v38.72zm-26.4-19.015c0-5.54 4.507-10.046 10.046-10.046C30.494 11.7 35 16.206 35 21.745c0 5.54-4.506 10.046-10.046 10.046-5.54 0-10.046-4.506-10.046-10.046z" id="Shape"/><path d="M30.717 20.776H19.294a1.02 1.02 0 0 0 0 2.04h11.423a1.02 1.02 0 0 0 0-2.04zm0 3.978H19.294a1.02 1.02 0 0 0 0 2.04h11.423a1.02 1.02 0 1 0 0-2.04zm-6.834-8.057h-4.59a1.02 1.02 0 0 0 0 2.04h4.59a1.02 1.02 0 0 0 0-2.04zm3.672 0h-.612a1.02 1.02 0 0 0 0 2.04h.612a1.02 1.02 0 0 0 0-2.04z" id="Path"/></g></g></g></svg>