<svg width="60" height="59" viewBox="0 0 60 59" version="1.1" xmlns="http://www.w3.org/2000/svg"><g id="Mockups" stroke="none" stroke-width="1" fill="none" fill-rule="evenodd"><g id="Career-Index" transform="translate(-1002 -1735)" fill="#E9731F" fill-rule="nonzero"><g id="Group-7" transform="translate(144 1729)"><g id="world" transform="translate(858 6)"><path d="M11.45 50.248a26.267 26.267 0 0 1-1.846-1.665.918.918 0 0 0-1.292 0 .918.918 0 0 0 0 1.297 23.417 23.417 0 0 0 1.909 1.732.918.918 0 0 0 1.228-1.364zM1.842 23.032a.918.918 0 0 0-1.217.783 27.49 27.49 0 0 0-.429 2.54.918.918 0 0 0 .778 1.028h.116a.918.918 0 0 0 .912-.808c.098-.795.232-1.597.404-2.374a.918.918 0 0 0-.564-1.17zm5.044 22.35a27.096 27.096 0 0 1-1.328-2.007.918.918 0 0 0-1.259-.32l-.002.002a.918.918 0 0 0-.32 1.258l.002.002c.44.735.918 1.457 1.426 2.148a.918.918 0 0 0 1.48-1.083zm-3.201-5.789a26.3 26.3 0 0 1-.79-2.277.918.918 0 0 0-1.162-.618.918.918 0 0 0-.612 1.138c.244.82.526 1.64.844 2.448a.927.927 0 1 0 1.72-.691zm.548-22.855a.918.918 0 0 0-1.234.407c-.385.765-.74 1.554-1.052 2.356-.184.47.045 1 .514 1.187a.918.918 0 0 0 1.191-.515l.002-.005c.294-.747.612-1.487.986-2.197a.918.918 0 0 0-.407-1.233zm-2.2 16.468v-.002a28.796 28.796 0 0 1-.196-2.4.919.919 0 1 0-1.836.068c0 .857.098 1.72.208 2.57a.918.918 0 0 0 .887.79h.14a.918.918 0 0 0 .797-1.026zM26.387 2.582a.922.922 0 0 0-1.007-.83 27.87 27.87 0 0 0-2.552.374A.922.922 0 1 0 23 3.962l-.007-.024h.178c.79-.153 1.591-.27 2.387-.35a.922.922 0 0 0 .829-1.006zM8.22 11.184a.924.924 0 0 0-1.304.08 26.988 26.988 0 0 0-1.603 2.019.918.918 0 0 0 .74 1.456v.013a.918.918 0 0 0 .747-.38c.471-.649.973-1.285 1.5-1.885a.924.924 0 0 0-.08-1.303zm24.217-9.278a27.576 27.576 0 0 0-2.565-.27.92.92 0 1 0-.11 1.836c.808.062 1.61.147 2.4.27h.14a.92.92 0 1 0 .135-1.836zM13.433 6.81a.918.918 0 0 0-1.235-.229 29.684 29.684 0 0 0-2.057 1.555.92.92 0 1 0 1.175 1.414 24.752 24.752 0 0 1 1.922-1.457.918.918 0 0 0 .195-1.283z" id="Path"/><g id="Group" transform="translate(15.453 3.213)"><path d="M1.06 2.854h-.02.018zM4.296.704A.918.918 0 0 0 3.042.107C2.24.4 1.44.719.668 1.104a.918.918 0 0 0 .382 1.75.918.918 0 0 0 .383-.091 26.173 26.173 0 0 1 2.221-.93.918.918 0 0 0 .642-1.129z" id="Path"/></g><path d="M30.848 57.02a.92.92 0 0 0-.976-.86c-.801.06-1.61.08-2.41.055a.918.918 0 1 0-.05 1.836h.777c.612 0 1.224 0 1.8-.055a.92.92 0 0 0 .86-.977zm24.028-21.268a.919.919 0 0 0-1.117.664 24.956 24.956 0 0 1-.704 2.302.918.918 0 0 0 .557 1.156.918.918 0 0 0 1.174-.554v-.003c.288-.808.54-1.634.754-2.448a.919.919 0 0 0-.664-1.117zm1.172-10.511a29.277 29.277 0 0 0-.533-2.521.918.918 0 0 0-1.775.465c.202.771.368 1.567.502 2.356a.92.92 0 0 0 .894.753h.153c.5-.081.84-.552.759-1.053z" id="Path"/><path d="M59.95 14.705a.89.89 0 0 0-.175-.253l-1.622-1.69a.887.887 0 0 0-.888-.22l-2.925.888-3.427-3.635 7.693-4.284a.893.893 0 0 0 .263-1.438l-2.16-2.16a.894.894 0 0 0-.888-.209l-9.749 2.95-3.28-3.482A2.968 2.968 0 0 0 39.413.37h-.055a3.61 3.61 0 0 0-1.964 1.964 3.308 3.308 0 0 0-.196.723l-.373-.129a.92.92 0 0 0-.563 1.75c.47.153.942.325 1.413.502.142.222.308.427.496.612l3.458 3.28-.992 3.275C30.941 5.43 17.472 7.683 10.555 17.38c-6.917 9.697-4.663 23.165 5.034 30.082 9.697 6.917 23.165 4.663 30.082-5.033a21.567 21.567 0 0 0-.474-25.688l1.567-2.828 3.635 3.428-.875 2.894a.887.887 0 0 0 .214.906s1.793 1.775 1.836 1.836a.888.888 0 0 0 1.224-.343l2.393-4.388 4.32-2.356a.893.893 0 0 0 .438-1.185zm-45.696 1.21a19.652 19.652 0 0 1 13.91-5.753c.409 0 .817.012 1.225.036 3.47 3.201 2.448 6.12.122 8.752a42.959 42.959 0 0 1-4.406 4.064c-2.258 1.921-4.364 3.714-5.16 5.508-.942 2.13-.25 4.057 3.556 5.74 1.904.845 2.938 1.5 3.342 1.995a.099.099 0 0 0 .018.017 7.606 7.606 0 0 1-2.93.51c-4.616.195-7.902-2.754-10.454-5.037-1.836-1.634-3.36-2.993-4.945-3.005a19.652 19.652 0 0 1 5.722-12.828zm33.654 13.94h.006a19.731 19.731 0 0 1-13.592 18.746 6.42 6.42 0 0 1 .752-4.167 15.173 15.173 0 0 1 3.672-4.04c5.65-4.712 5.967-7.344 6.212-9.37.153-1.278.27-2.233 2.797-3.622.101.814.153 1.633.153 2.454zm-1.138-6.621c.273.77.498 1.558.673 2.356-3.85 1.959-4.021 3.354-4.254 5.257-.208 1.714-.477 3.954-5.581 8.213a16.739 16.739 0 0 0-4.1 4.547 8.116 8.116 0 0 0-.918 5.466C21.973 51.499 11.4 44.86 8.973 34.244a19.72 19.72 0 0 1-.484-3.697c.973 0 2.234 1.157 3.782 2.534 2.803 2.503 6.39 5.698 11.732 5.508a9.18 9.18 0 0 0 3.672-.698c.49-.216.862-.637 1.016-1.15a1.75 1.75 0 0 0-.44-1.598c-.576-.703-1.836-1.536-4.003-2.503-2.589-1.144-3.152-2.258-2.644-3.396.612-1.432 2.583-3.06 4.676-4.896a44.55 44.55 0 0 0 4.596-4.284c2.558-2.913 3.874-6.09 1.273-9.566 2.89.591 5.61 1.828 7.956 3.617l-1.408 4.645a.893.893 0 0 0 .215.906s2.282 2.264 2.356 2.307a.888.888 0 0 0 1.224-.342l1.78-3.22a19.677 19.677 0 0 1 2.498 4.823zm8.207-6.836l-.79.392a.881.881 0 0 0-.404.41l-.392.795-1.523 2.754-.447-.49.887-2.93a.887.887 0 0 0-.287-.943l-4.83-4.547a.887.887 0 0 0-1.278.036c-.061.068-4.407 7.895-4.407 7.895l-.948-.949L43.52 9.06a.887.887 0 0 0-.288-.949L39.39 4.495a1.273 1.273 0 0 1-.349-1.47c.195-.444.552-.798.998-.99h.03A1.273 1.273 0 0 1 41.5 2.4l3.672 3.88c.23.248.582.343.906.245L55.87 3.57l.949.949-7.773 4.272a.887.887 0 0 0-.342 1.224c.036.067 4.718 5.049 4.718 5.049a.887.887 0 0 0 .906.238l2.944-.887.459.459-2.754 1.524z" id="Shape"/><path d="M52.612 42.204a.918.918 0 0 0-1.265.339 24.322 24.322 0 0 1-1.26 2.056.92.92 0 0 0 1.505 1.059c.478-.71.93-1.45 1.347-2.197a.92.92 0 0 0-.327-1.257zm2.903-13.401a.918.918 0 0 0-.93.943v.104c0 .801-.037 1.61-.11 2.411a.918.918 0 0 0 .83.997h.088a.918.918 0 0 0 .924-.85c.08-.85.116-1.714.116-2.57v-.123a.918.918 0 0 0-.918-.912zM23.281 55.756a18.963 18.963 0 0 1-2.35-.539.918.918 0 1 0-.502 1.763 37.5 37.5 0 0 0 2.51.612h.17a.922.922 0 1 0 .172-1.836zm14.204-.279a.918.918 0 0 0-1.113-.566v.025a18.24 18.24 0 0 1-2.32.612.92.92 0 0 0 .404 1.793c.833-.19 1.671-.422 2.485-.686a.918.918 0 0 0 .544-1.178zm-20.501-1.723a44.174 44.174 0 0 1-2.136-1.144.919.919 0 1 0-.93 1.585c.74.435 1.505.838 2.282 1.224a.92.92 0 0 0 .784-1.665zm31.728-5.904a.918.918 0 0 0-1.281.042h.006c-.551.612-1.132 1.15-1.726 1.683a.919.919 0 0 0 1.224 1.37c.612-.569 1.26-1.175 1.836-1.799a.918.918 0 0 0-.059-1.297zm-5.065 4.578a.918.918 0 0 0-1.302-.29v-.024a37.9 37.9 0 0 1-2.087 1.224.918.918 0 0 0 .838 1.634 28.892 28.892 0 0 0 2.234-1.285.918.918 0 0 0 .317-1.259z" id="Path"/></g></g></g></g></svg>